<?xml version="1.0" encoding="utf-8" standalone="no"?>
<!DOCTYPE svg PUBLIC "-//W3C//DTD SVG 1.1//EN"
  "http://www.w3.org/Graphics/SVG/1.1/DTD/svg11.dtd">
<svg xmlns:xlink="http://www.w3.org/1999/xlink" width="1230.48pt" height="671.76pt" viewBox="0 0 1230.48 671.76" xmlns="http://www.w3.org/2000/svg" version="1.1">
 <metadata>
  <rdf:RDF xmlns:dc="http://purl.org/dc/elements/1.1/" xmlns:cc="http://creativecommons.org/ns#" xmlns:rdf="http://www.w3.org/1999/02/22-rdf-syntax-ns#">
   <cc:Work>
    <dc:type rdf:resource="http://purl.org/dc/dcmitype/StillImage"/>
    <dc:date>2025-06-12T10:11:20.752398</dc:date>
    <dc:format>image/svg+xml</dc:format>
    <dc:creator>
     <cc:Agent>
      <dc:title>Matplotlib v3.9.2, https://matplotlib.org/</dc:title>
     </cc:Agent>
    </dc:creator>
   </cc:Work>
  </rdf:RDF>
 </metadata>
 <defs>
  <style type="text/css">*{stroke-linejoin: round; stroke-linecap: butt}</style>
 </defs>
 <g id="figure_1">
  <g id="patch_1">
   <path d="M 0 671.76 
L 1230.48 671.76 
L 1230.48 0 
L 0 0 
z
" style="fill: #ffffff"/>
  </g>
  <g id="axes_1">
   <g id="patch_2">
    <path d="M 127.186984 590.20025 
L 1201.640625 590.20025 
L 1201.640625 49.449 
L 127.186984 49.449 
z
" style="fill: #ffffff"/>
   </g>
   <g id="patch_3">
    <path d="M 283.47115 350.724696 
L 293.238911 350.724696 
L 293.238911 327.549643 
L 283.47115 327.549643 
z
" clip-path="url(#p1ca1e7a7df)" style="fill: #000080; opacity: 0.5; stroke-dasharray: 3.7,1.6; stroke-dashoffset: 0; stroke: #808080; stroke-linejoin: miter"/>
   </g>
   <g id="PathCollection_1">
    <defs>
     <path id="m7911ff23a2" d="M 0 3 
C 0.795609 3 1.55874 2.683901 2.12132 2.12132 
C 2.683901 1.55874 3 0.795609 3 0 
C 3 -0.795609 2.683901 -1.55874 2.12132 -2.12132 
C 1.55874 -2.683901 0.795609 -3 0 -3 
C -0.795609 -3 -1.55874 -2.683901 -2.12132 -2.12132 
C -2.683901 -1.55874 -3 -0.795609 -3 0 
C -3 0.795609 -2.683901 1.55874 -2.12132 2.12132 
C -1.55874 2.683901 -0.795609 3 0 3 
z
" style="stroke: #000000"/>
    </defs>
    <g clip-path="url(#p1ca1e7a7df)">
     <use xlink:href="#m7911ff23a2" x="283.47115" y="327.549643" style="fill: #000080; stroke: #000000"/>
    </g>
   </g>
   <g id="PathCollection_2">
    <defs>
     <path id="m70be86e980" d="M 0 -3 
L -3 3 
L 3 3 
z
" style="stroke: #000000"/>
    </defs>
    <g clip-path="url(#p1ca1e7a7df)">
     <use xlink:href="#m70be86e980" x="283.47115" y="342.999679" style="fill: #000080; stroke: #000000"/>
    </g>
   </g>
   <g id="PathCollection_3">
    <defs>
     <path id="md3e5ccb5ab" d="M -3 3 
L 3 3 
L 3 -3 
L -3 -3 
z
" style="stroke: #000000"/>
    </defs>
    <g clip-path="url(#p1ca1e7a7df)">
     <use xlink:href="#md3e5ccb5ab" x="283.47115" y="350.724696" style="fill: #000080; stroke: #000000"/>
    </g>
   </g>
   <g id="PathCollection_4">
    <defs>
     <path id="maafc6196cf" d="M 0 4.242641 
L 4.242641 0 
L 0 -4.242641 
L -4.242641 0 
z
" style="stroke: #000000"/>
    </defs>
    <g clip-path="url(#p1ca1e7a7df)">
     <use xlink:href="#maafc6196cf" x="293.238911" y="350.724696" style="fill: #000080; stroke: #000000"/>
    </g>
   </g>
   <g id="patch_4">
    <path d="M 283.47115 312.099607 
L 293.238911 312.099607 
L 293.238911 288.924554 
L 283.47115 288.924554 
z
" clip-path="url(#p1ca1e7a7df)" style="fill: #003669; opacity: 0.5; stroke-dasharray: 3.7,1.6; stroke-dashoffset: 0; stroke: #808080; stroke-linejoin: miter"/>
   </g>
   <g id="PathCollection_5">
    <defs>
     <path id="m56b25282ae" d="M 0 3 
C 0.795609 3 1.55874 2.683901 2.12132 2.12132 
C 2.683901 1.55874 3 0.795609 3 0 
C 3 -0.795609 2.683901 -1.55874 2.12132 -2.12132 
C 1.55874 -2.683901 0.795609 -3 0 -3 
C -0.795609 -3 -1.55874 -2.683901 -2.12132 -2.12132 
C -2.683901 -1.55874 -3 -0.795609 -3 0 
C -3 0.795609 -2.683901 1.55874 -2.12132 2.12132 
C -1.55874 2.683901 -0.795609 3 0 3 
z
" style="stroke: #000000"/>
    </defs>
    <g clip-path="url(#p1ca1e7a7df)">
     <use xlink:href="#m56b25282ae" x="283.47115" y="296.649571" style="fill: #003669; stroke: #000000"/>
    </g>
   </g>
   <g id="PathCollection_6">
    <defs>
     <path id="m11c74df1b8" d="M 0 -3 
L -3 3 
L 3 3 
z
" style="stroke: #000000"/>
    </defs>
    <g clip-path="url(#p1ca1e7a7df)">
     <use xlink:href="#m11c74df1b8" x="293.238911" y="288.924554" style="fill: #003669; stroke: #000000"/>
    </g>
   </g>
   <g id="PathCollection_7">
    <defs>
     <path id="mbe03aafe25" d="M -3 3 
L 3 3 
L 3 -3 
L -3 -3 
z
" style="stroke: #000000"/>
    </defs>
    <g clip-path="url(#p1ca1e7a7df)">
     <use xlink:href="#mbe03aafe25" x="283.47115" y="312.099607" style="fill: #003669; stroke: #000000"/>
    </g>
   </g>
   <g id="PathCollection_8">
    <defs>
     <path id="ma140a2f070" d="M 0 4.242641 
L 4.242641 0 
L 0 -4.242641 
L -4.242641 0 
z
" style="stroke: #000000"/>
    </defs>
    <g clip-path="url(#p1ca1e7a7df)">
     <use xlink:href="#ma140a2f070" x="293.238911" y="312.099607" style="fill: #003669; stroke: #000000"/>
    </g>
   </g>
   <g id="patch_5">
    <path d="M 273.70339 312.099607 
L 273.70339 312.099607 
L 273.70339 304.374589 
L 273.70339 304.374589 
z
" clip-path="url(#p1ca1e7a7df)" style="fill: #00a9ff; opacity: 0.5; stroke-dasharray: 3.7,1.6; stroke-dashoffset: 0; stroke: #808080; stroke-linejoin: miter"/>
   </g>
   <g id="PathCollection_9">
    <defs>
     <path id="m010bdfe448" d="M 0 3 
C 0.795609 3 1.55874 2.683901 2.12132 2.12132 
C 2.683901 1.55874 3 0.795609 3 0 
C 3 -0.795609 2.683901 -1.55874 2.12132 -2.12132 
C 1.55874 -2.683901 0.795609 -3 0 -3 
C -0.795609 -3 -1.55874 -2.683901 -2.12132 -2.12132 
C -2.683901 -1.55874 -3 -0.795609 -3 0 
C -3 0.795609 -2.683901 1.55874 -2.12132 2.12132 
C -1.55874 2.683901 -0.795609 3 0 3 
z
" style="stroke: #000000"/>
    </defs>
    <g clip-path="url(#p1ca1e7a7df)">
     <use xlink:href="#m010bdfe448" x="273.70339" y="304.374589" style="fill: #00a9ff; stroke: #000000"/>
    </g>
   </g>
   <g id="PathCollection_10">
    <defs>
     <path id="mf0a7fb2fed" d="M 0 -3 
L -3 3 
L 3 3 
z
" style="stroke: #000000"/>
    </defs>
    <g clip-path="url(#p1ca1e7a7df)">
     <use xlink:href="#mf0a7fb2fed" x="273.70339" y="312.099607" style="fill: #00a9ff; stroke: #000000"/>
    </g>
   </g>
   <g id="PathCollection_11">
    <defs>
     <path id="mb2c0746d69" d="M -3 3 
L 3 3 
L 3 -3 
L -3 -3 
z
" style="stroke: #000000"/>
    </defs>
    <g clip-path="url(#p1ca1e7a7df)">
     <use xlink:href="#mb2c0746d69" x="273.70339" y="304.374589" style="fill: #00a9ff; stroke: #000000"/>
    </g>
   </g>
   <g id="PathCollection_12">
    <defs>
     <path id="ma340c9b028" d="M 0 4.242641 
L 4.242641 0 
L 0 -4.242641 
L -4.242641 0 
z
" style="stroke: #000000"/>
    </defs>
    <g clip-path="url(#p1ca1e7a7df)">
     <use xlink:href="#ma340c9b028" x="273.70339" y="304.374589" style="fill: #00a9ff; stroke: #000000"/>
    </g>
   </g>
   <g id="patch_6">
    <path d="M 283.47115 265.7495 
L 293.238911 265.7495 
L 293.238911 250.299464 
L 283.47115 250.299464 
z
" clip-path="url(#p1ca1e7a7df)" style="fill: #00fdd1; opacity: 0.5; stroke-dasharray: 3.7,1.6; stroke-dashoffset: 0; stroke: #808080; stroke-linejoin: miter"/>
   </g>
   <g id="PathCollection_13">
    <defs>
     <path id="mf11e456d57" d="M 0 3 
C 0.795609 3 1.55874 2.683901 2.12132 2.12132 
C 2.683901 1.55874 3 0.795609 3 0 
C 3 -0.795609 2.683901 -1.55874 2.12132 -2.12132 
C 1.55874 -2.683901 0.795609 -3 0 -3 
C -0.795609 -3 -1.55874 -2.683901 -2.12132 -2.12132 
C -2.683901 -1.55874 -3 -0.795609 -3 0 
C -3 0.795609 -2.683901 1.55874 -2.12132 2.12132 
C -1.55874 2.683901 -0.795609 3 0 3 
z
" style="stroke: #000000"/>
    </defs>
    <g clip-path="url(#p1ca1e7a7df)">
     <use xlink:href="#mf11e456d57" x="283.47115" y="250.299464" style="fill: #00fdd1; stroke: #000000"/>
    </g>
   </g>
   <g id="PathCollection_14">
    <defs>
     <path id="m0b2e4f6231" d="M 0 -3 
L -3 3 
L 3 3 
z
" style="stroke: #000000"/>
    </defs>
    <g clip-path="url(#p1ca1e7a7df)">
     <use xlink:href="#m0b2e4f6231" x="293.238911" y="265.7495" style="fill: #00fdd1; stroke: #000000"/>
    </g>
   </g>
   <g id="PathCollection_15">
    <defs>
     <path id="mec45398ba8" d="M -3 3 
L 3 3 
L 3 -3 
L -3 -3 
z
" style="stroke: #000000"/>
    </defs>
    <g clip-path="url(#p1ca1e7a7df)">
     <use xlink:href="#mec45398ba8" x="283.47115" y="258.024482" style="fill: #00fdd1; stroke: #000000"/>
    </g>
   </g>
   <g id="PathCollection_16">
    <defs>
     <path id="m8b9fc8fc6a" d="M 0 4.242641 
L 4.242641 0 
L 0 -4.242641 
L -4.242641 0 
z
" style="stroke: #000000"/>
    </defs>
    <g clip-path="url(#p1ca1e7a7df)">
     <use xlink:href="#m8b9fc8fc6a" x="293.238911" y="258.024482" style="fill: #00fdd1; stroke: #000000"/>
    </g>
   </g>
   <g id="patch_7">
    <path d="M 312.774431 536.125125 
L 332.309952 536.125125 
L 332.309952 489.775018 
L 312.774431 489.775018 
z
" clip-path="url(#p1ca1e7a7df)" style="fill: #00fe2a; opacity: 0.5; stroke-dasharray: 3.7,1.6; stroke-dashoffset: 0; stroke: #808080; stroke-linejoin: miter"/>
   </g>
   <g id="PathCollection_17">
    <defs>
     <path id="mef244aacac" d="M 0 3 
C 0.795609 3 1.55874 2.683901 2.12132 2.12132 
C 2.683901 1.55874 3 0.795609 3 0 
C 3 -0.795609 2.683901 -1.55874 2.12132 -2.12132 
C 1.55874 -2.683901 0.795609 -3 0 -3 
C -0.795609 -3 -1.55874 -2.683901 -2.12132 -2.12132 
C -2.683901 -1.55874 -3 -0.795609 -3 0 
C -3 0.795609 -2.683901 1.55874 -2.12132 2.12132 
C -1.55874 2.683901 -0.795609 3 0 3 
z
" style="stroke: #000000"/>
    </defs>
    <g clip-path="url(#p1ca1e7a7df)">
     <use xlink:href="#mef244aacac" x="312.774431" y="536.125125" style="fill: #00fe2a; stroke: #000000"/>
    </g>
   </g>
   <g id="PathCollection_18">
    <defs>
     <path id="mc5249811cd" d="M 0 -3 
L -3 3 
L 3 3 
z
" style="stroke: #000000"/>
    </defs>
    <g clip-path="url(#p1ca1e7a7df)">
     <use xlink:href="#mc5249811cd" x="332.309952" y="489.775018" style="fill: #00fe2a; stroke: #000000"/>
    </g>
   </g>
   <g id="PathCollection_19">
    <defs>
     <path id="m9b45197151" d="M -3 3 
L 3 3 
L 3 -3 
L -3 -3 
z
" style="stroke: #000000"/>
    </defs>
    <g clip-path="url(#p1ca1e7a7df)">
     <use xlink:href="#m9b45197151" x="322.542192" y="489.775018" style="fill: #00fe2a; stroke: #000000"/>
    </g>
   </g>
   <g id="PathCollection_20">
    <defs>
     <path id="m65db2c8421" d="M 0 4.242641 
L 4.242641 0 
L 0 -4.242641 
L -4.242641 0 
z
" style="stroke: #000000"/>
    </defs>
    <g clip-path="url(#p1ca1e7a7df)">
     <use xlink:href="#m65db2c8421" x="332.309952" y="489.775018" style="fill: #00fe2a; stroke: #000000"/>
    </g>
   </g>
   <g id="patch_8">
    <path d="M 283.47115 466.599964 
L 293.238911 466.599964 
L 293.238911 404.799821 
L 283.47115 404.799821 
z
" clip-path="url(#p1ca1e7a7df)" style="fill: #6cdb00; opacity: 0.5; stroke-dasharray: 3.7,1.6; stroke-dashoffset: 0; stroke: #808080; stroke-linejoin: miter"/>
   </g>
   <g id="PathCollection_21">
    <defs>
     <path id="m2d5ea882ac" d="M 0 3 
C 0.795609 3 1.55874 2.683901 2.12132 2.12132 
C 2.683901 1.55874 3 0.795609 3 0 
C 3 -0.795609 2.683901 -1.55874 2.12132 -2.12132 
C 1.55874 -2.683901 0.795609 -3 0 -3 
C -0.795609 -3 -1.55874 -2.683901 -2.12132 -2.12132 
C -2.683901 -1.55874 -3 -0.795609 -3 0 
C -3 0.795609 -2.683901 1.55874 -2.12132 2.12132 
C -1.55874 2.683901 -0.795609 3 0 3 
z
" style="stroke: #000000"/>
    </defs>
    <g clip-path="url(#p1ca1e7a7df)">
     <use xlink:href="#m2d5ea882ac" x="283.47115" y="404.799821" style="fill: #6cdb00; stroke: #000000"/>
    </g>
   </g>
   <g id="PathCollection_22">
    <defs>
     <path id="m01c6f59d06" d="M 0 -3 
L -3 3 
L 3 3 
z
" style="stroke: #000000"/>
    </defs>
    <g clip-path="url(#p1ca1e7a7df)">
     <use xlink:href="#m01c6f59d06" x="293.238911" y="404.799821" style="fill: #6cdb00; stroke: #000000"/>
    </g>
   </g>
   <g id="PathCollection_23">
    <defs>
     <path id="m2da8da17e7" d="M -3 3 
L 3 3 
L 3 -3 
L -3 -3 
z
" style="stroke: #000000"/>
    </defs>
    <g clip-path="url(#p1ca1e7a7df)">
     <use xlink:href="#m2da8da17e7" x="283.47115" y="466.599964" style="fill: #6cdb00; stroke: #000000"/>
    </g>
   </g>
   <g id="PathCollection_24">
    <defs>
     <path id="m6799119894" d="M 0 4.242641 
L 4.242641 0 
L 0 -4.242641 
L -4.242641 0 
z
" style="stroke: #000000"/>
    </defs>
    <g clip-path="url(#p1ca1e7a7df)">
     <use xlink:href="#m6799119894" x="293.238911" y="466.599964" style="fill: #6cdb00; stroke: #000000"/>
    </g>
   </g>
   <g id="patch_9">
    <path d="M 166.258026 412.524839 
L 263.93563 412.524839 
L 263.93563 389.349786 
L 166.258026 389.349786 
z
" clip-path="url(#p1ca1e7a7df)" style="fill: #adff30; opacity: 0.5; stroke-dasharray: 3.7,1.6; stroke-dashoffset: 0; stroke: #808080; stroke-linejoin: miter"/>
   </g>
   <g id="PathCollection_25">
    <defs>
     <path id="m5020ac48d6" d="M 0 3 
C 0.795609 3 1.55874 2.683901 2.12132 2.12132 
C 2.683901 1.55874 3 0.795609 3 0 
C 3 -0.795609 2.683901 -1.55874 2.12132 -2.12132 
C 1.55874 -2.683901 0.795609 -3 0 -3 
C -0.795609 -3 -1.55874 -2.683901 -2.12132 -2.12132 
C -2.683901 -1.55874 -3 -0.795609 -3 0 
C -3 0.795609 -2.683901 1.55874 -2.12132 2.12132 
C -1.55874 2.683901 -0.795609 3 0 3 
z
" style="stroke: #000000"/>
    </defs>
    <g clip-path="url(#p1ca1e7a7df)">
     <use xlink:href="#m5020ac48d6" x="263.93563" y="412.524839" style="fill: #adff30; stroke: #000000"/>
    </g>
   </g>
   <g id="PathCollection_26">
    <defs>
     <path id="m132dffcbb6" d="M 0 -3 
L -3 3 
L 3 3 
z
" style="stroke: #000000"/>
    </defs>
    <g clip-path="url(#p1ca1e7a7df)">
     <use xlink:href="#m132dffcbb6" x="166.258026" y="404.799821" style="fill: #adff30; stroke: #000000"/>
    </g>
   </g>
   <g id="PathCollection_27">
    <defs>
     <path id="m658c2fea2e" d="M -3 3 
L 3 3 
L 3 -3 
L -3 -3 
z
" style="stroke: #000000"/>
    </defs>
    <g clip-path="url(#p1ca1e7a7df)">
     <use xlink:href="#m658c2fea2e" x="244.400109" y="389.349786" style="fill: #adff30; stroke: #000000"/>
    </g>
   </g>
   <g id="PathCollection_28">
    <defs>
     <path id="mf7d7b821cc" d="M 0 4.242641 
L 4.242641 0 
L 0 -4.242641 
L -4.242641 0 
z
" style="stroke: #000000"/>
    </defs>
    <g clip-path="url(#p1ca1e7a7df)">
     <use xlink:href="#mf7d7b821cc" x="176.025786" y="389.349786" style="fill: #adff30; stroke: #000000"/>
    </g>
   </g>
   <g id="patch_10">
    <path d="M 508.129639 304.374589 
L 547.20068 304.374589 
L 547.20068 258.024482 
L 508.129639 258.024482 
z
" clip-path="url(#p1ca1e7a7df)" style="fill: #fff500; opacity: 0.5; stroke-dasharray: 3.7,1.6; stroke-dashoffset: 0; stroke: #808080; stroke-linejoin: miter"/>
   </g>
   <g id="PathCollection_29">
    <defs>
     <path id="m6d63e82897" d="M 0 3 
C 0.795609 3 1.55874 2.683901 2.12132 2.12132 
C 2.683901 1.55874 3 0.795609 3 0 
C 3 -0.795609 2.683901 -1.55874 2.12132 -2.12132 
C 1.55874 -2.683901 0.795609 -3 0 -3 
C -0.795609 -3 -1.55874 -2.683901 -2.12132 -2.12132 
C -2.683901 -1.55874 -3 -0.795609 -3 0 
C -3 0.795609 -2.683901 1.55874 -2.12132 2.12132 
C -1.55874 2.683901 -0.795609 3 0 3 
z
" style="stroke: #000000"/>
    </defs>
    <g clip-path="url(#p1ca1e7a7df)">
     <use xlink:href="#m6d63e82897" x="547.20068" y="258.024482" style="fill: #fff500; stroke: #000000"/>
    </g>
   </g>
   <g id="PathCollection_30">
    <defs>
     <path id="md0e88309b4" d="M 0 -3 
L -3 3 
L 3 3 
z
" style="stroke: #000000"/>
    </defs>
    <g clip-path="url(#p1ca1e7a7df)">
     <use xlink:href="#md0e88309b4" x="517.897399" y="304.374589" style="fill: #fff500; stroke: #000000"/>
    </g>
   </g>
   <g id="PathCollection_31">
    <defs>
     <path id="m43a614935b" d="M -3 3 
L 3 3 
L 3 -3 
L -3 -3 
z
" style="stroke: #000000"/>
    </defs>
    <g clip-path="url(#p1ca1e7a7df)">
     <use xlink:href="#m43a614935b" x="527.66516" y="304.374589" style="fill: #fff500; stroke: #000000"/>
    </g>
   </g>
   <g id="PathCollection_32">
    <defs>
     <path id="mc808c96ed2" d="M 0 4.242641 
L 4.242641 0 
L 0 -4.242641 
L -4.242641 0 
z
" style="stroke: #000000"/>
    </defs>
    <g clip-path="url(#p1ca1e7a7df)">
     <use xlink:href="#mc808c96ed2" x="508.129639" y="304.374589" style="fill: #fff500; stroke: #000000"/>
    </g>
   </g>
   <g id="patch_11">
    <path d="M 869.536772 242.574446 
L 976.982137 242.574446 
L 976.982137 180.774304 
L 869.536772 180.774304 
z
" clip-path="url(#p1ca1e7a7df)" style="fill: #ffc40a; opacity: 0.5; stroke-dasharray: 3.7,1.6; stroke-dashoffset: 0; stroke: #808080; stroke-linejoin: miter"/>
   </g>
   <g id="PathCollection_33">
    <defs>
     <path id="m976cdb83e8" d="M 0 3 
C 0.795609 3 1.55874 2.683901 2.12132 2.12132 
C 2.683901 1.55874 3 0.795609 3 0 
C 3 -0.795609 2.683901 -1.55874 2.12132 -2.12132 
C 1.55874 -2.683901 0.795609 -3 0 -3 
C -0.795609 -3 -1.55874 -2.683901 -2.12132 -2.12132 
C -2.683901 -1.55874 -3 -0.795609 -3 0 
C -3 0.795609 -2.683901 1.55874 -2.12132 2.12132 
C -1.55874 2.683901 -0.795609 3 0 3 
z
" style="stroke: #000000"/>
    </defs>
    <g clip-path="url(#p1ca1e7a7df)">
     <use xlink:href="#m976cdb83e8" x="976.982137" y="180.774304" style="fill: #ffc40a; stroke: #000000"/>
    </g>
   </g>
   <g id="PathCollection_34">
    <defs>
     <path id="m217861a6b5" d="M 0 -3 
L -3 3 
L 3 3 
z
" style="stroke: #000000"/>
    </defs>
    <g clip-path="url(#p1ca1e7a7df)">
     <use xlink:href="#m217861a6b5" x="889.072293" y="234.849429" style="fill: #ffc40a; stroke: #000000"/>
    </g>
   </g>
   <g id="PathCollection_35">
    <defs>
     <path id="m5fe25005cc" d="M -3 3 
L 3 3 
L 3 -3 
L -3 -3 
z
" style="stroke: #000000"/>
    </defs>
    <g clip-path="url(#p1ca1e7a7df)">
     <use xlink:href="#m5fe25005cc" x="908.607814" y="242.574446" style="fill: #ffc40a; stroke: #000000"/>
    </g>
   </g>
   <g id="PathCollection_36">
    <defs>
     <path id="m41a76c914b" d="M 0 4.242641 
L 4.242641 0 
L 0 -4.242641 
L -4.242641 0 
z
" style="stroke: #000000"/>
    </defs>
    <g clip-path="url(#p1ca1e7a7df)">
     <use xlink:href="#m41a76c914b" x="869.536772" y="242.574446" style="fill: #ffc40a; stroke: #000000"/>
    </g>
   </g>
   <g id="patch_12">
    <path d="M 312.774431 381.624768 
L 332.309952 381.624768 
L 332.309952 373.89975 
L 312.774431 373.89975 
z
" clip-path="url(#p1ca1e7a7df)" style="fill: #ff3e00; opacity: 0.5; stroke-dasharray: 3.7,1.6; stroke-dashoffset: 0; stroke: #808080; stroke-linejoin: miter"/>
   </g>
   <g id="PathCollection_37">
    <defs>
     <path id="mead0825796" d="M 0 3 
C 0.795609 3 1.55874 2.683901 2.12132 2.12132 
C 2.683901 1.55874 3 0.795609 3 0 
C 3 -0.795609 2.683901 -1.55874 2.12132 -2.12132 
C 1.55874 -2.683901 0.795609 -3 0 -3 
C -0.795609 -3 -1.55874 -2.683901 -2.12132 -2.12132 
C -2.683901 -1.55874 -3 -0.795609 -3 0 
C -3 0.795609 -2.683901 1.55874 -2.12132 2.12132 
C -1.55874 2.683901 -0.795609 3 0 3 
z
" style="stroke: #000000"/>
    </defs>
    <g clip-path="url(#p1ca1e7a7df)">
     <use xlink:href="#mead0825796" x="312.774431" y="373.89975" style="fill: #ff3e00; stroke: #000000"/>
    </g>
   </g>
   <g id="PathCollection_38">
    <defs>
     <path id="m13544fb489" d="M 0 -3 
L -3 3 
L 3 3 
z
" style="stroke: #000000"/>
    </defs>
    <g clip-path="url(#p1ca1e7a7df)">
     <use xlink:href="#m13544fb489" x="322.542192" y="381.624768" style="fill: #ff3e00; stroke: #000000"/>
    </g>
   </g>
   <g id="PathCollection_39">
    <defs>
     <path id="m1140e5b683" d="M -3 3 
L 3 3 
L 3 -3 
L -3 -3 
z
" style="stroke: #000000"/>
    </defs>
    <g clip-path="url(#p1ca1e7a7df)">
     <use xlink:href="#m1140e5b683" x="322.542192" y="373.89975" style="fill: #ff3e00; stroke: #000000"/>
    </g>
   </g>
   <g id="PathCollection_40">
    <defs>
     <path id="md3a8509a7c" d="M 0 4.242641 
L 4.242641 0 
L 0 -4.242641 
L -4.242641 0 
z
" style="stroke: #000000"/>
    </defs>
    <g clip-path="url(#p1ca1e7a7df)">
     <use xlink:href="#md3a8509a7c" x="332.309952" y="373.89975" style="fill: #ff3e00; stroke: #000000"/>
    </g>
   </g>
   <g id="patch_13">
    <path d="M 273.70339 342.999679 
L 273.70339 342.999679 
L 273.70339 319.824625 
L 273.70339 319.824625 
z
" clip-path="url(#p1ca1e7a7df)" style="fill: #ff008e; opacity: 0.5; stroke-dasharray: 3.7,1.6; stroke-dashoffset: 0; stroke: #808080; stroke-linejoin: miter"/>
   </g>
   <g id="PathCollection_41">
    <defs>
     <path id="m66befbce9f" d="M 0 3 
C 0.795609 3 1.55874 2.683901 2.12132 2.12132 
C 2.683901 1.55874 3 0.795609 3 0 
C 3 -0.795609 2.683901 -1.55874 2.12132 -2.12132 
C 1.55874 -2.683901 0.795609 -3 0 -3 
C -0.795609 -3 -1.55874 -2.683901 -2.12132 -2.12132 
C -2.683901 -1.55874 -3 -0.795609 -3 0 
C -3 0.795609 -2.683901 1.55874 -2.12132 2.12132 
C -1.55874 2.683901 -0.795609 3 0 3 
z
" style="stroke: #000000"/>
    </defs>
    <g clip-path="url(#p1ca1e7a7df)">
     <use xlink:href="#m66befbce9f" x="273.70339" y="319.824625" style="fill: #ff008e; stroke: #000000"/>
    </g>
   </g>
   <g id="PathCollection_42">
    <defs>
     <path id="m666cabf5c1" d="M 0 -3 
L -3 3 
L 3 3 
z
" style="stroke: #000000"/>
    </defs>
    <g clip-path="url(#p1ca1e7a7df)">
     <use xlink:href="#m666cabf5c1" x="273.70339" y="342.999679" style="fill: #ff008e; stroke: #000000"/>
    </g>
   </g>
   <g id="PathCollection_43">
    <defs>
     <path id="me111ae656b" d="M -3 3 
L 3 3 
L 3 -3 
L -3 -3 
z
" style="stroke: #000000"/>
    </defs>
    <g clip-path="url(#p1ca1e7a7df)">
     <use xlink:href="#me111ae656b" x="273.70339" y="335.274661" style="fill: #ff008e; stroke: #000000"/>
    </g>
   </g>
   <g id="PathCollection_44">
    <defs>
     <path id="mca99079d3a" d="M 0 4.242641 
L 4.242641 0 
L 0 -4.242641 
L -4.242641 0 
z
" style="stroke: #000000"/>
    </defs>
    <g clip-path="url(#p1ca1e7a7df)">
     <use xlink:href="#mca99079d3a" x="273.70339" y="335.274661" style="fill: #ff008e; stroke: #000000"/>
    </g>
   </g>
   <g id="patch_14">
    <path d="M 980.889241 541.532637 
L 1055.124219 541.532637 
L 1055.124219 381.624768 
L 980.889241 381.624768 
z
" clip-path="url(#p1ca1e7a7df)" style="fill: #9f33fe; opacity: 0.5; stroke-dasharray: 3.7,1.6; stroke-dashoffset: 0; stroke: #808080; stroke-linejoin: miter"/>
   </g>
   <g id="PathCollection_45">
    <defs>
     <path id="m6ac138ac8c" d="M 0 3 
C 0.795609 3 1.55874 2.683901 2.12132 2.12132 
C 2.683901 1.55874 3 0.795609 3 0 
C 3 -0.795609 2.683901 -1.55874 2.12132 -2.12132 
C 1.55874 -2.683901 0.795609 -3 0 -3 
C -0.795609 -3 -1.55874 -2.683901 -2.12132 -2.12132 
C -2.683901 -1.55874 -3 -0.795609 -3 0 
C -3 0.795609 -2.683901 1.55874 -2.12132 2.12132 
C -1.55874 2.683901 -0.795609 3 0 3 
z
" style="stroke: #000000"/>
    </defs>
    <g clip-path="url(#p1ca1e7a7df)">
     <use xlink:href="#m6ac138ac8c" x="1055.124219" y="381.624768" style="fill: #9f33fe; stroke: #000000"/>
    </g>
   </g>
   <g id="PathCollection_46">
    <defs>
     <path id="m21c9057bec" d="M 0 -3 
L -3 3 
L 3 3 
z
" style="stroke: #000000"/>
    </defs>
    <g clip-path="url(#p1ca1e7a7df)">
     <use xlink:href="#m21c9057bec" x="999.447985" y="495.955032" style="fill: #9f33fe; stroke: #000000"/>
    </g>
   </g>
   <g id="PathCollection_47">
    <defs>
     <path id="m2784cd8f44" d="M -3 3 
L 3 3 
L 3 -3 
L -3 -3 
z
" style="stroke: #000000"/>
    </defs>
    <g clip-path="url(#p1ca1e7a7df)">
     <use xlink:href="#m2784cd8f44" x="1000.424761" y="505.225054" style="fill: #9f33fe; stroke: #000000"/>
    </g>
   </g>
   <g id="PathCollection_48">
    <defs>
     <path id="mffd979ce56" d="M 0 4.242641 
L 4.242641 0 
L 0 -4.242641 
L -4.242641 0 
z
" style="stroke: #000000"/>
    </defs>
    <g clip-path="url(#p1ca1e7a7df)">
     <use xlink:href="#mffd979ce56" x="980.889241" y="541.532637" style="fill: #9f33fe; stroke: #000000"/>
    </g>
   </g>
   <g id="patch_15">
    <path d="M 979.912465 389.349786 
L 1055.124219 389.349786 
L 1055.124219 335.274661 
L 979.912465 335.274661 
z
" clip-path="url(#p1ca1e7a7df)" style="fill: #f0a0f2; opacity: 0.5; stroke-dasharray: 3.7,1.6; stroke-dashoffset: 0; stroke: #808080; stroke-linejoin: miter"/>
   </g>
   <g id="PathCollection_49">
    <defs>
     <path id="m0df09a9df0" d="M 0 3 
C 0.795609 3 1.55874 2.683901 2.12132 2.12132 
C 2.683901 1.55874 3 0.795609 3 0 
C 3 -0.795609 2.683901 -1.55874 2.12132 -2.12132 
C 1.55874 -2.683901 0.795609 -3 0 -3 
C -0.795609 -3 -1.55874 -2.683901 -2.12132 -2.12132 
C -2.683901 -1.55874 -3 -0.795609 -3 0 
C -3 0.795609 -2.683901 1.55874 -2.12132 2.12132 
C -1.55874 2.683901 -0.795609 3 0 3 
z
" style="stroke: #000000"/>
    </defs>
    <g clip-path="url(#p1ca1e7a7df)">
     <use xlink:href="#m0df09a9df0" x="1055.124219" y="335.274661" style="fill: #f0a0f2; stroke: #000000"/>
    </g>
   </g>
   <g id="PathCollection_50">
    <defs>
     <path id="m48e4e466f9" d="M 0 -3 
L -3 3 
L 3 3 
z
" style="stroke: #000000"/>
    </defs>
    <g clip-path="url(#p1ca1e7a7df)">
     <use xlink:href="#m48e4e466f9" x="999.447985" y="389.349786" style="fill: #f0a0f2; stroke: #000000"/>
    </g>
   </g>
   <g id="PathCollection_51">
    <defs>
     <path id="m8b070b0ff4" d="M -3 3 
L 3 3 
L 3 -3 
L -3 -3 
z
" style="stroke: #000000"/>
    </defs>
    <g clip-path="url(#p1ca1e7a7df)">
     <use xlink:href="#m8b070b0ff4" x="1000.424761" y="387.03228" style="fill: #f0a0f2; stroke: #000000"/>
    </g>
   </g>
   <g id="PathCollection_52">
    <defs>
     <path id="mabfea681a3" d="M 0 4.242641 
L 4.242641 0 
L 0 -4.242641 
L -4.242641 0 
z
" style="stroke: #000000"/>
    </defs>
    <g clip-path="url(#p1ca1e7a7df)">
     <use xlink:href="#mabfea681a3" x="979.912465" y="355.359707" style="fill: #f0a0f2; stroke: #000000"/>
    </g>
   </g>
   <g id="patch_16">
    <path d="M 1113.730782 448.059921 
L 1143.034063 448.059921 
L 1143.034063 373.89975 
L 1113.730782 373.89975 
z
" clip-path="url(#p1ca1e7a7df)" style="fill: #fef8fe; opacity: 0.5; stroke-dasharray: 3.7,1.6; stroke-dashoffset: 0; stroke: #808080; stroke-linejoin: miter"/>
   </g>
   <g id="PathCollection_53">
    <defs>
     <path id="m7b72046d8f" d="M 0 3 
C 0.795609 3 1.55874 2.683901 2.12132 2.12132 
C 2.683901 1.55874 3 0.795609 3 0 
C 3 -0.795609 2.683901 -1.55874 2.12132 -2.12132 
C 1.55874 -2.683901 0.795609 -3 0 -3 
C -0.795609 -3 -1.55874 -2.683901 -2.12132 -2.12132 
C -2.683901 -1.55874 -3 -0.795609 -3 0 
C -3 0.795609 -2.683901 1.55874 -2.12132 2.12132 
C -1.55874 2.683901 -0.795609 3 0 3 
z
" style="stroke: #000000"/>
    </defs>
    <g clip-path="url(#p1ca1e7a7df)">
     <use xlink:href="#m7b72046d8f" x="1143.034063" y="373.89975" style="fill: #fef8fe; stroke: #000000"/>
    </g>
   </g>
   <g id="PathCollection_54">
    <defs>
     <path id="ma572eec9a6" d="M 0 -3 
L -3 3 
L 3 3 
z
" style="stroke: #000000"/>
    </defs>
    <g clip-path="url(#p1ca1e7a7df)">
     <use xlink:href="#ma572eec9a6" x="1133.266302" y="448.059921" style="fill: #fef8fe; stroke: #000000"/>
    </g>
   </g>
   <g id="PathCollection_55">
    <defs>
     <path id="m529fd9af21" d="M -3 3 
L 3 3 
L 3 -3 
L -3 -3 
z
" style="stroke: #000000"/>
    </defs>
    <g clip-path="url(#p1ca1e7a7df)">
     <use xlink:href="#m529fd9af21" x="1113.730782" y="437.244896" style="fill: #fef8fe; stroke: #000000"/>
    </g>
   </g>
   <g id="PathCollection_56">
    <defs>
     <path id="m0ded8bdb57" d="M 0 4.242641 
L 4.242641 0 
L 0 -4.242641 
L -4.242641 0 
z
" style="stroke: #000000"/>
    </defs>
    <g clip-path="url(#p1ca1e7a7df)">
     <use xlink:href="#m0ded8bdb57" x="1123.498542" y="427.974875" style="fill: #fef8fe; stroke: #000000"/>
    </g>
   </g>
   <g id="matplotlib.axis_1">
    <g id="xtick_1">
     <g id="line2d_1">
      <defs>
       <path id="m3cff5178ca" d="M 0 0 
L 0 3.5 
" style="stroke: #000000; stroke-width: 0.8"/>
      </defs>
      <g>
       <use xlink:href="#m3cff5178ca" x="273.70339" y="590.20025" style="stroke: #000000; stroke-width: 0.8"/>
      </g>
     </g>
     <g id="text_1">
      <!-- 0 -->
      <g transform="translate(271.20339 604.144) scale(0.1 -0.1)">
       <defs>
        <path id="TimesNewRomanPSMT-30" d="M 231 2094 
Q 231 2819 450 3342 
Q 669 3866 1031 4122 
Q 1313 4325 1613 4325 
Q 2100 4325 2488 3828 
Q 2972 3213 2972 2159 
Q 2972 1422 2759 906 
Q 2547 391 2217 158 
Q 1888 -75 1581 -75 
Q 975 -75 572 641 
Q 231 1244 231 2094 
z
M 844 2016 
Q 844 1141 1059 588 
Q 1238 122 1591 122 
Q 1759 122 1940 273 
Q 2122 425 2216 781 
Q 2359 1319 2359 2297 
Q 2359 3022 2209 3506 
Q 2097 3866 1919 4016 
Q 1791 4119 1609 4119 
Q 1397 4119 1231 3928 
Q 1006 3669 925 3112 
Q 844 2556 844 2016 
z
" transform="scale(0.015625)"/>
       </defs>
       <use xlink:href="#TimesNewRomanPSMT-30"/>
      </g>
     </g>
    </g>
    <g id="xtick_2">
     <g id="line2d_2">
      <g>
       <use xlink:href="#m3cff5178ca" x="469.058597" y="590.20025" style="stroke: #000000; stroke-width: 0.8"/>
      </g>
     </g>
     <g id="text_2">
      <!-- 20 -->
      <g transform="translate(464.058597 604.144) scale(0.1 -0.1)">
       <defs>
        <path id="TimesNewRomanPSMT-32" d="M 2934 816 
L 2638 0 
L 138 0 
L 138 116 
Q 1241 1122 1691 1759 
Q 2141 2397 2141 2925 
Q 2141 3328 1894 3587 
Q 1647 3847 1303 3847 
Q 991 3847 742 3664 
Q 494 3481 375 3128 
L 259 3128 
Q 338 3706 661 4015 
Q 984 4325 1469 4325 
Q 1984 4325 2329 3994 
Q 2675 3663 2675 3213 
Q 2675 2891 2525 2569 
Q 2294 2063 1775 1497 
Q 997 647 803 472 
L 1909 472 
Q 2247 472 2383 497 
Q 2519 522 2628 598 
Q 2738 675 2819 816 
L 2934 816 
z
" transform="scale(0.015625)"/>
       </defs>
       <use xlink:href="#TimesNewRomanPSMT-32"/>
       <use xlink:href="#TimesNewRomanPSMT-30" x="50"/>
      </g>
     </g>
    </g>
    <g id="xtick_3">
     <g id="line2d_3">
      <g>
       <use xlink:href="#m3cff5178ca" x="664.413805" y="590.20025" style="stroke: #000000; stroke-width: 0.8"/>
      </g>
     </g>
     <g id="text_3">
      <!-- 40 -->
      <g transform="translate(659.413805 604.144) scale(0.1 -0.1)">
       <defs>
        <path id="TimesNewRomanPSMT-34" d="M 2978 1563 
L 2978 1119 
L 2409 1119 
L 2409 0 
L 1894 0 
L 1894 1119 
L 100 1119 
L 100 1519 
L 2066 4325 
L 2409 4325 
L 2409 1563 
L 2978 1563 
z
M 1894 1563 
L 1894 3666 
L 406 1563 
L 1894 1563 
z
" transform="scale(0.015625)"/>
       </defs>
       <use xlink:href="#TimesNewRomanPSMT-34"/>
       <use xlink:href="#TimesNewRomanPSMT-30" x="50"/>
      </g>
     </g>
    </g>
    <g id="xtick_4">
     <g id="line2d_4">
      <g>
       <use xlink:href="#m3cff5178ca" x="859.769012" y="590.20025" style="stroke: #000000; stroke-width: 0.8"/>
      </g>
     </g>
     <g id="text_4">
      <!-- 60 -->
      <g transform="translate(854.769012 604.144) scale(0.1 -0.1)">
       <defs>
        <path id="TimesNewRomanPSMT-36" d="M 2869 4325 
L 2869 4209 
Q 2456 4169 2195 4045 
Q 1934 3922 1679 3669 
Q 1425 3416 1258 3105 
Q 1091 2794 978 2366 
Q 1428 2675 1881 2675 
Q 2316 2675 2634 2325 
Q 2953 1975 2953 1425 
Q 2953 894 2631 456 
Q 2244 -75 1606 -75 
Q 1172 -75 869 213 
Q 275 772 275 1663 
Q 275 2231 503 2743 
Q 731 3256 1154 3653 
Q 1578 4050 1965 4187 
Q 2353 4325 2688 4325 
L 2869 4325 
z
M 925 2138 
Q 869 1716 869 1456 
Q 869 1156 980 804 
Q 1091 453 1309 247 
Q 1469 100 1697 100 
Q 1969 100 2183 356 
Q 2397 613 2397 1088 
Q 2397 1622 2184 2012 
Q 1972 2403 1581 2403 
Q 1463 2403 1327 2353 
Q 1191 2303 925 2138 
z
" transform="scale(0.015625)"/>
       </defs>
       <use xlink:href="#TimesNewRomanPSMT-36"/>
       <use xlink:href="#TimesNewRomanPSMT-30" x="50"/>
      </g>
     </g>
    </g>
    <g id="xtick_5">
     <g id="line2d_5">
      <g>
       <use xlink:href="#m3cff5178ca" x="1055.124219" y="590.20025" style="stroke: #000000; stroke-width: 0.8"/>
      </g>
     </g>
     <g id="text_5">
      <!-- 80 -->
      <g transform="translate(1050.124219 604.144) scale(0.1 -0.1)">
       <defs>
        <path id="TimesNewRomanPSMT-38" d="M 1228 2134 
Q 725 2547 579 2797 
Q 434 3047 434 3316 
Q 434 3728 753 4026 
Q 1072 4325 1600 4325 
Q 2113 4325 2425 4047 
Q 2738 3769 2738 3413 
Q 2738 3175 2569 2928 
Q 2400 2681 1866 2347 
Q 2416 1922 2594 1678 
Q 2831 1359 2831 1006 
Q 2831 559 2490 242 
Q 2150 -75 1597 -75 
Q 994 -75 656 303 
Q 388 606 388 966 
Q 388 1247 577 1523 
Q 766 1800 1228 2134 
z
M 1719 2469 
Q 2094 2806 2194 3001 
Q 2294 3197 2294 3444 
Q 2294 3772 2109 3958 
Q 1925 4144 1606 4144 
Q 1288 4144 1088 3959 
Q 888 3775 888 3528 
Q 888 3366 970 3203 
Q 1053 3041 1206 2894 
L 1719 2469 
z
M 1375 2016 
Q 1116 1797 991 1539 
Q 866 1281 866 981 
Q 866 578 1086 336 
Q 1306 94 1647 94 
Q 1984 94 2187 284 
Q 2391 475 2391 747 
Q 2391 972 2272 1150 
Q 2050 1481 1375 2016 
z
" transform="scale(0.015625)"/>
       </defs>
       <use xlink:href="#TimesNewRomanPSMT-38"/>
       <use xlink:href="#TimesNewRomanPSMT-30" x="50"/>
      </g>
     </g>
    </g>
    <g id="text_6">
     <!-- % reduction in CO2 emissions -->
     <g transform="translate(603.306773 617.226812) scale(0.1 -0.1)">
      <defs>
       <path id="TimesNewRomanPSMT-25" d="M 4350 4334 
L 1263 -175 
L 984 -175 
L 4072 4334 
L 4350 4334 
z
M 1138 4334 
Q 1559 4334 1792 3984 
Q 2025 3634 2025 3181 
Q 2025 2638 1762 2341 
Q 1500 2044 1131 2044 
Q 884 2044 678 2180 
Q 472 2316 348 2584 
Q 225 2853 225 3181 
Q 225 3509 350 3786 
Q 475 4063 692 4198 
Q 909 4334 1138 4334 
z
M 1128 4159 
Q 969 4159 845 3971 
Q 722 3784 722 3184 
Q 722 2750 791 2522 
Q 844 2350 956 2256 
Q 1022 2200 1119 2200 
Q 1269 2200 1375 2363 
Q 1531 2603 1531 3166 
Q 1531 3759 1378 4000 
Q 1278 4159 1128 4159 
z
M 4206 2103 
Q 4428 2103 4648 1962 
Q 4869 1822 4989 1553 
Q 5109 1284 5109 963 
Q 5109 409 4843 117 
Q 4578 -175 4216 -175 
Q 3988 -175 3773 -34 
Q 3559 106 3436 367 
Q 3313 628 3313 963 
Q 3313 1291 3436 1562 
Q 3559 1834 3773 1968 
Q 3988 2103 4206 2103 
z
M 4209 1938 
Q 4059 1938 3950 1769 
Q 3809 1550 3809 941 
Q 3809 381 3953 159 
Q 4059 0 4209 0 
Q 4353 0 4466 172 
Q 4616 400 4616 956 
Q 4616 1544 4466 1778 
Q 4363 1938 4209 1938 
z
" transform="scale(0.015625)"/>
       <path id="TimesNewRomanPSMT-20" transform="scale(0.015625)"/>
       <path id="TimesNewRomanPSMT-72" d="M 1038 2947 
L 1038 2303 
Q 1397 2947 1775 2947 
Q 1947 2947 2059 2842 
Q 2172 2738 2172 2600 
Q 2172 2478 2090 2393 
Q 2009 2309 1897 2309 
Q 1788 2309 1652 2417 
Q 1516 2525 1450 2525 
Q 1394 2525 1328 2463 
Q 1188 2334 1038 2041 
L 1038 669 
Q 1038 431 1097 309 
Q 1138 225 1241 169 
Q 1344 113 1538 113 
L 1538 0 
L 72 0 
L 72 113 
Q 291 113 397 181 
Q 475 231 506 341 
Q 522 394 522 644 
L 522 1753 
Q 522 2253 501 2348 
Q 481 2444 426 2487 
Q 372 2531 291 2531 
Q 194 2531 72 2484 
L 41 2597 
L 906 2947 
L 1038 2947 
z
" transform="scale(0.015625)"/>
       <path id="TimesNewRomanPSMT-65" d="M 681 1784 
Q 678 1147 991 784 
Q 1303 422 1725 422 
Q 2006 422 2214 576 
Q 2422 731 2563 1106 
L 2659 1044 
Q 2594 616 2278 264 
Q 1963 -88 1488 -88 
Q 972 -88 605 314 
Q 238 716 238 1394 
Q 238 2128 614 2539 
Q 991 2950 1559 2950 
Q 2041 2950 2350 2633 
Q 2659 2316 2659 1784 
L 681 1784 
z
M 681 1966 
L 2006 1966 
Q 1991 2241 1941 2353 
Q 1863 2528 1708 2628 
Q 1553 2728 1384 2728 
Q 1125 2728 920 2526 
Q 716 2325 681 1966 
z
" transform="scale(0.015625)"/>
       <path id="TimesNewRomanPSMT-64" d="M 2222 322 
Q 2013 103 1813 7 
Q 1613 -88 1381 -88 
Q 913 -88 563 304 
Q 213 697 213 1313 
Q 213 1928 600 2439 
Q 988 2950 1597 2950 
Q 1975 2950 2222 2709 
L 2222 3238 
Q 2222 3728 2198 3840 
Q 2175 3953 2125 3993 
Q 2075 4034 2000 4034 
Q 1919 4034 1784 3984 
L 1744 4094 
L 2597 4444 
L 2738 4444 
L 2738 1134 
Q 2738 631 2761 520 
Q 2784 409 2836 365 
Q 2888 322 2956 322 
Q 3041 322 3181 375 
L 3216 266 
L 2366 -88 
L 2222 -88 
L 2222 322 
z
M 2222 541 
L 2222 2016 
Q 2203 2228 2109 2403 
Q 2016 2578 1861 2667 
Q 1706 2756 1559 2756 
Q 1284 2756 1069 2509 
Q 784 2184 784 1559 
Q 784 928 1059 592 
Q 1334 256 1672 256 
Q 1956 256 2222 541 
z
" transform="scale(0.015625)"/>
       <path id="TimesNewRomanPSMT-75" d="M 2709 2863 
L 2709 1128 
Q 2709 631 2732 520 
Q 2756 409 2807 365 
Q 2859 322 2928 322 
Q 3025 322 3147 375 
L 3191 266 
L 2334 -88 
L 2194 -88 
L 2194 519 
Q 1825 119 1631 15 
Q 1438 -88 1222 -88 
Q 981 -88 804 51 
Q 628 191 559 409 
Q 491 628 491 1028 
L 491 2306 
Q 491 2509 447 2587 
Q 403 2666 317 2708 
Q 231 2750 6 2747 
L 6 2863 
L 1009 2863 
L 1009 947 
Q 1009 547 1148 422 
Q 1288 297 1484 297 
Q 1619 297 1789 381 
Q 1959 466 2194 703 
L 2194 2325 
Q 2194 2569 2105 2655 
Q 2016 2741 1734 2747 
L 1734 2863 
L 2709 2863 
z
" transform="scale(0.015625)"/>
       <path id="TimesNewRomanPSMT-63" d="M 2631 1088 
Q 2516 522 2178 217 
Q 1841 -88 1431 -88 
Q 944 -88 581 321 
Q 219 731 219 1428 
Q 219 2103 620 2525 
Q 1022 2947 1584 2947 
Q 2006 2947 2278 2723 
Q 2550 2500 2550 2259 
Q 2550 2141 2473 2067 
Q 2397 1994 2259 1994 
Q 2075 1994 1981 2113 
Q 1928 2178 1911 2362 
Q 1894 2547 1784 2644 
Q 1675 2738 1481 2738 
Q 1169 2738 978 2506 
Q 725 2200 725 1697 
Q 725 1184 976 792 
Q 1228 400 1656 400 
Q 1963 400 2206 609 
Q 2378 753 2541 1131 
L 2631 1088 
z
" transform="scale(0.015625)"/>
       <path id="TimesNewRomanPSMT-74" d="M 1031 3803 
L 1031 2863 
L 1700 2863 
L 1700 2644 
L 1031 2644 
L 1031 788 
Q 1031 509 1111 412 
Q 1191 316 1316 316 
Q 1419 316 1516 380 
Q 1613 444 1666 569 
L 1788 569 
Q 1678 263 1478 108 
Q 1278 -47 1066 -47 
Q 922 -47 784 33 
Q 647 113 581 261 
Q 516 409 516 719 
L 516 2644 
L 63 2644 
L 63 2747 
Q 234 2816 414 2980 
Q 594 3144 734 3369 
Q 806 3488 934 3803 
L 1031 3803 
z
" transform="scale(0.015625)"/>
       <path id="TimesNewRomanPSMT-69" d="M 928 4444 
Q 1059 4444 1151 4351 
Q 1244 4259 1244 4128 
Q 1244 3997 1151 3903 
Q 1059 3809 928 3809 
Q 797 3809 703 3903 
Q 609 3997 609 4128 
Q 609 4259 701 4351 
Q 794 4444 928 4444 
z
M 1188 2947 
L 1188 647 
Q 1188 378 1227 289 
Q 1266 200 1342 156 
Q 1419 113 1622 113 
L 1622 0 
L 231 0 
L 231 113 
Q 441 113 512 153 
Q 584 194 626 287 
Q 669 381 669 647 
L 669 1750 
Q 669 2216 641 2353 
Q 619 2453 572 2492 
Q 525 2531 444 2531 
Q 356 2531 231 2484 
L 188 2597 
L 1050 2947 
L 1188 2947 
z
" transform="scale(0.015625)"/>
       <path id="TimesNewRomanPSMT-6f" d="M 1600 2947 
Q 2250 2947 2644 2453 
Q 2978 2031 2978 1484 
Q 2978 1100 2793 706 
Q 2609 313 2286 112 
Q 1963 -88 1566 -88 
Q 919 -88 538 428 
Q 216 863 216 1403 
Q 216 1797 411 2186 
Q 606 2575 925 2761 
Q 1244 2947 1600 2947 
z
M 1503 2744 
Q 1338 2744 1170 2645 
Q 1003 2547 900 2300 
Q 797 2053 797 1666 
Q 797 1041 1045 587 
Q 1294 134 1700 134 
Q 2003 134 2200 384 
Q 2397 634 2397 1244 
Q 2397 2006 2069 2444 
Q 1847 2744 1503 2744 
z
" transform="scale(0.015625)"/>
       <path id="TimesNewRomanPSMT-6e" d="M 1034 2341 
Q 1538 2947 1994 2947 
Q 2228 2947 2397 2830 
Q 2566 2713 2666 2444 
Q 2734 2256 2734 1869 
L 2734 647 
Q 2734 375 2778 278 
Q 2813 200 2889 156 
Q 2966 113 3172 113 
L 3172 0 
L 1756 0 
L 1756 113 
L 1816 113 
Q 2016 113 2095 173 
Q 2175 234 2206 353 
Q 2219 400 2219 647 
L 2219 1819 
Q 2219 2209 2117 2386 
Q 2016 2563 1775 2563 
Q 1403 2563 1034 2156 
L 1034 647 
Q 1034 356 1069 288 
Q 1113 197 1189 155 
Q 1266 113 1500 113 
L 1500 0 
L 84 0 
L 84 113 
L 147 113 
Q 366 113 442 223 
Q 519 334 519 647 
L 519 1709 
Q 519 2225 495 2337 
Q 472 2450 423 2490 
Q 375 2531 294 2531 
Q 206 2531 84 2484 
L 38 2597 
L 900 2947 
L 1034 2947 
L 1034 2341 
z
" transform="scale(0.015625)"/>
       <path id="TimesNewRomanPSMT-43" d="M 3853 4334 
L 3950 2894 
L 3853 2894 
Q 3659 3541 3300 3825 
Q 2941 4109 2438 4109 
Q 2016 4109 1675 3895 
Q 1334 3681 1139 3212 
Q 944 2744 944 2047 
Q 944 1472 1128 1050 
Q 1313 628 1683 403 
Q 2053 178 2528 178 
Q 2941 178 3256 354 
Q 3572 531 3950 1056 
L 4047 994 
Q 3728 428 3303 165 
Q 2878 -97 2294 -97 
Q 1241 -97 663 684 
Q 231 1266 231 2053 
Q 231 2688 515 3219 
Q 800 3750 1298 4042 
Q 1797 4334 2388 4334 
Q 2847 4334 3294 4109 
Q 3425 4041 3481 4041 
Q 3566 4041 3628 4100 
Q 3709 4184 3744 4334 
L 3853 4334 
z
" transform="scale(0.015625)"/>
       <path id="TimesNewRomanPSMT-4f" d="M 2341 4334 
Q 3166 4334 3770 3707 
Q 4375 3081 4375 2144 
Q 4375 1178 3765 540 
Q 3156 -97 2291 -97 
Q 1416 -97 820 525 
Q 225 1147 225 2134 
Q 225 3144 913 3781 
Q 1509 4334 2341 4334 
z
M 2281 4106 
Q 1713 4106 1369 3684 
Q 941 3159 941 2147 
Q 941 1109 1384 550 
Q 1725 125 2284 125 
Q 2881 125 3270 590 
Q 3659 1056 3659 2059 
Q 3659 3147 3231 3681 
Q 2888 4106 2281 4106 
z
" transform="scale(0.015625)"/>
       <path id="TimesNewRomanPSMT-6d" d="M 1050 2338 
Q 1363 2650 1419 2697 
Q 1559 2816 1721 2881 
Q 1884 2947 2044 2947 
Q 2313 2947 2506 2790 
Q 2700 2634 2766 2338 
Q 3088 2713 3309 2830 
Q 3531 2947 3766 2947 
Q 3994 2947 4170 2830 
Q 4347 2713 4450 2447 
Q 4519 2266 4519 1878 
L 4519 647 
Q 4519 378 4559 278 
Q 4591 209 4675 161 
Q 4759 113 4950 113 
L 4950 0 
L 3538 0 
L 3538 113 
L 3597 113 
Q 3781 113 3884 184 
Q 3956 234 3988 344 
Q 4000 397 4000 647 
L 4000 1878 
Q 4000 2228 3916 2372 
Q 3794 2572 3525 2572 
Q 3359 2572 3192 2489 
Q 3025 2406 2788 2181 
L 2781 2147 
L 2788 2013 
L 2788 647 
Q 2788 353 2820 281 
Q 2853 209 2943 161 
Q 3034 113 3253 113 
L 3253 0 
L 1806 0 
L 1806 113 
Q 2044 113 2133 169 
Q 2222 225 2256 338 
Q 2272 391 2272 647 
L 2272 1878 
Q 2272 2228 2169 2381 
Q 2031 2581 1784 2581 
Q 1616 2581 1450 2491 
Q 1191 2353 1050 2181 
L 1050 647 
Q 1050 366 1089 281 
Q 1128 197 1204 155 
Q 1281 113 1516 113 
L 1516 0 
L 100 0 
L 100 113 
Q 297 113 375 155 
Q 453 197 493 289 
Q 534 381 534 647 
L 534 1741 
Q 534 2213 506 2350 
Q 484 2453 437 2492 
Q 391 2531 309 2531 
Q 222 2531 100 2484 
L 53 2597 
L 916 2947 
L 1050 2947 
L 1050 2338 
z
" transform="scale(0.015625)"/>
       <path id="TimesNewRomanPSMT-73" d="M 2050 2947 
L 2050 1972 
L 1947 1972 
Q 1828 2431 1642 2597 
Q 1456 2763 1169 2763 
Q 950 2763 815 2647 
Q 681 2531 681 2391 
Q 681 2216 781 2091 
Q 878 1963 1175 1819 
L 1631 1597 
Q 2266 1288 2266 781 
Q 2266 391 1970 151 
Q 1675 -88 1309 -88 
Q 1047 -88 709 6 
Q 606 38 541 38 
Q 469 38 428 -44 
L 325 -44 
L 325 978 
L 428 978 
Q 516 541 762 319 
Q 1009 97 1316 97 
Q 1531 97 1667 223 
Q 1803 350 1803 528 
Q 1803 744 1651 891 
Q 1500 1038 1047 1263 
Q 594 1488 453 1669 
Q 313 1847 313 2119 
Q 313 2472 555 2709 
Q 797 2947 1181 2947 
Q 1350 2947 1591 2875 
Q 1750 2828 1803 2828 
Q 1853 2828 1881 2850 
Q 1909 2872 1947 2947 
L 2050 2947 
z
" transform="scale(0.015625)"/>
      </defs>
      <use xlink:href="#TimesNewRomanPSMT-25"/>
      <use xlink:href="#TimesNewRomanPSMT-20" x="83.300781"/>
      <use xlink:href="#TimesNewRomanPSMT-72" x="108.300781"/>
      <use xlink:href="#TimesNewRomanPSMT-65" x="141.601562"/>
      <use xlink:href="#TimesNewRomanPSMT-64" x="185.986328"/>
      <use xlink:href="#TimesNewRomanPSMT-75" x="235.986328"/>
      <use xlink:href="#TimesNewRomanPSMT-63" x="285.986328"/>
      <use xlink:href="#TimesNewRomanPSMT-74" x="330.371094"/>
      <use xlink:href="#TimesNewRomanPSMT-69" x="358.154297"/>
      <use xlink:href="#TimesNewRomanPSMT-6f" x="385.9375"/>
      <use xlink:href="#TimesNewRomanPSMT-6e" x="435.9375"/>
      <use xlink:href="#TimesNewRomanPSMT-20" x="485.9375"/>
      <use xlink:href="#TimesNewRomanPSMT-69" x="510.9375"/>
      <use xlink:href="#TimesNewRomanPSMT-6e" x="538.720703"/>
      <use xlink:href="#TimesNewRomanPSMT-20" x="588.720703"/>
      <use xlink:href="#TimesNewRomanPSMT-43" x="613.720703"/>
      <use xlink:href="#TimesNewRomanPSMT-4f" x="680.419922"/>
      <use xlink:href="#TimesNewRomanPSMT-32" x="752.636719"/>
      <use xlink:href="#TimesNewRomanPSMT-20" x="802.636719"/>
      <use xlink:href="#TimesNewRomanPSMT-65" x="827.636719"/>
      <use xlink:href="#TimesNewRomanPSMT-6d" x="872.021484"/>
      <use xlink:href="#TimesNewRomanPSMT-69" x="949.804688"/>
      <use xlink:href="#TimesNewRomanPSMT-73" x="977.587891"/>
      <use xlink:href="#TimesNewRomanPSMT-73" x="1016.503906"/>
      <use xlink:href="#TimesNewRomanPSMT-69" x="1055.419922"/>
      <use xlink:href="#TimesNewRomanPSMT-6f" x="1083.203125"/>
      <use xlink:href="#TimesNewRomanPSMT-6e" x="1133.203125"/>
      <use xlink:href="#TimesNewRomanPSMT-73" x="1183.203125"/>
     </g>
    </g>
   </g>
   <g id="matplotlib.axis_2">
    <g id="ytick_1">
     <g id="line2d_6">
      <defs>
       <path id="mdf3bb0a7f0" d="M 0 0 
L -3.5 0 
" style="stroke: #000000; stroke-width: 0.8"/>
      </defs>
      <g>
       <use xlink:href="#mdf3bb0a7f0" x="127.186984" y="551.575161" style="stroke: #000000; stroke-width: 0.8"/>
      </g>
     </g>
     <g id="text_7">
      <!-- −30 -->
      <g transform="translate(104.547922 555.047036) scale(0.1 -0.1)">
       <defs>
        <path id="TimesNewRomanPSMT-2212" d="M 3484 2000 
L 116 2000 
L 116 2256 
L 3484 2256 
L 3484 2000 
z
" transform="scale(0.015625)"/>
        <path id="TimesNewRomanPSMT-33" d="M 325 3431 
Q 506 3859 782 4092 
Q 1059 4325 1472 4325 
Q 1981 4325 2253 3994 
Q 2459 3747 2459 3466 
Q 2459 3003 1878 2509 
Q 2269 2356 2469 2072 
Q 2669 1788 2669 1403 
Q 2669 853 2319 450 
Q 1863 -75 997 -75 
Q 569 -75 414 31 
Q 259 138 259 259 
Q 259 350 332 419 
Q 406 488 509 488 
Q 588 488 669 463 
Q 722 447 909 348 
Q 1097 250 1169 231 
Q 1284 197 1416 197 
Q 1734 197 1970 444 
Q 2206 691 2206 1028 
Q 2206 1275 2097 1509 
Q 2016 1684 1919 1775 
Q 1784 1900 1550 2001 
Q 1316 2103 1072 2103 
L 972 2103 
L 972 2197 
Q 1219 2228 1467 2375 
Q 1716 2522 1828 2728 
Q 1941 2934 1941 3181 
Q 1941 3503 1739 3701 
Q 1538 3900 1238 3900 
Q 753 3900 428 3381 
L 325 3431 
z
" transform="scale(0.015625)"/>
       </defs>
       <use xlink:href="#TimesNewRomanPSMT-2212"/>
       <use xlink:href="#TimesNewRomanPSMT-33" x="56.396484"/>
       <use xlink:href="#TimesNewRomanPSMT-30" x="106.396484"/>
      </g>
     </g>
    </g>
    <g id="ytick_2">
     <g id="line2d_7">
      <g>
       <use xlink:href="#mdf3bb0a7f0" x="127.186984" y="474.324982" style="stroke: #000000; stroke-width: 0.8"/>
      </g>
     </g>
     <g id="text_8">
      <!-- −20 -->
      <g transform="translate(104.547922 477.796857) scale(0.1 -0.1)">
       <use xlink:href="#TimesNewRomanPSMT-2212"/>
       <use xlink:href="#TimesNewRomanPSMT-32" x="56.396484"/>
       <use xlink:href="#TimesNewRomanPSMT-30" x="106.396484"/>
      </g>
     </g>
    </g>
    <g id="ytick_3">
     <g id="line2d_8">
      <g>
       <use xlink:href="#mdf3bb0a7f0" x="127.186984" y="397.074804" style="stroke: #000000; stroke-width: 0.8"/>
      </g>
     </g>
     <g id="text_9">
      <!-- −10 -->
      <g transform="translate(104.547922 400.546679) scale(0.1 -0.1)">
       <defs>
        <path id="TimesNewRomanPSMT-31" d="M 750 3822 
L 1781 4325 
L 1884 4325 
L 1884 747 
Q 1884 391 1914 303 
Q 1944 216 2037 169 
Q 2131 122 2419 116 
L 2419 0 
L 825 0 
L 825 116 
Q 1125 122 1212 167 
Q 1300 213 1334 289 
Q 1369 366 1369 747 
L 1369 3034 
Q 1369 3497 1338 3628 
Q 1316 3728 1258 3775 
Q 1200 3822 1119 3822 
Q 1003 3822 797 3725 
L 750 3822 
z
" transform="scale(0.015625)"/>
       </defs>
       <use xlink:href="#TimesNewRomanPSMT-2212"/>
       <use xlink:href="#TimesNewRomanPSMT-31" x="56.396484"/>
       <use xlink:href="#TimesNewRomanPSMT-30" x="106.396484"/>
      </g>
     </g>
    </g>
    <g id="ytick_4">
     <g id="line2d_9">
      <g>
       <use xlink:href="#mdf3bb0a7f0" x="127.186984" y="319.824625" style="stroke: #000000; stroke-width: 0.8"/>
      </g>
     </g>
     <g id="text_10">
      <!-- 0 -->
      <g transform="translate(115.186984 323.2965) scale(0.1 -0.1)">
       <use xlink:href="#TimesNewRomanPSMT-30"/>
      </g>
     </g>
    </g>
    <g id="ytick_5">
     <g id="line2d_10">
      <g>
       <use xlink:href="#mdf3bb0a7f0" x="127.186984" y="242.574446" style="stroke: #000000; stroke-width: 0.8"/>
      </g>
     </g>
     <g id="text_11">
      <!-- 10 -->
      <g transform="translate(110.186984 246.046321) scale(0.1 -0.1)">
       <use xlink:href="#TimesNewRomanPSMT-31"/>
       <use xlink:href="#TimesNewRomanPSMT-30" x="50"/>
      </g>
     </g>
    </g>
    <g id="ytick_6">
     <g id="line2d_11">
      <g>
       <use xlink:href="#mdf3bb0a7f0" x="127.186984" y="165.324268" style="stroke: #000000; stroke-width: 0.8"/>
      </g>
     </g>
     <g id="text_12">
      <!-- 20 -->
      <g transform="translate(110.186984 168.796143) scale(0.1 -0.1)">
       <use xlink:href="#TimesNewRomanPSMT-32"/>
       <use xlink:href="#TimesNewRomanPSMT-30" x="50"/>
      </g>
     </g>
    </g>
    <g id="ytick_7">
     <g id="line2d_12">
      <g>
       <use xlink:href="#mdf3bb0a7f0" x="127.186984" y="88.074089" style="stroke: #000000; stroke-width: 0.8"/>
      </g>
     </g>
     <g id="text_13">
      <!-- 30 -->
      <g transform="translate(110.186984 91.545964) scale(0.1 -0.1)">
       <use xlink:href="#TimesNewRomanPSMT-33"/>
       <use xlink:href="#TimesNewRomanPSMT-30" x="50"/>
      </g>
     </g>
    </g>
    <g id="text_14">
     <!-- % change in peak power demands -->
     <g transform="translate(98.390109 387.995719) rotate(-90) scale(0.1 -0.1)">
      <defs>
       <path id="TimesNewRomanPSMT-68" d="M 1041 4444 
L 1041 2350 
Q 1388 2731 1591 2839 
Q 1794 2947 1997 2947 
Q 2241 2947 2416 2812 
Q 2591 2678 2675 2391 
Q 2734 2191 2734 1659 
L 2734 647 
Q 2734 375 2778 275 
Q 2809 200 2884 156 
Q 2959 113 3159 113 
L 3159 0 
L 1753 0 
L 1753 113 
L 1819 113 
Q 2019 113 2097 173 
Q 2175 234 2206 353 
Q 2216 403 2216 647 
L 2216 1659 
Q 2216 2128 2167 2275 
Q 2119 2422 2012 2495 
Q 1906 2569 1756 2569 
Q 1603 2569 1437 2487 
Q 1272 2406 1041 2159 
L 1041 647 
Q 1041 353 1073 281 
Q 1106 209 1195 161 
Q 1284 113 1503 113 
L 1503 0 
L 84 0 
L 84 113 
Q 275 113 384 172 
Q 447 203 484 290 
Q 522 378 522 647 
L 522 3238 
Q 522 3728 498 3840 
Q 475 3953 426 3993 
Q 378 4034 297 4034 
Q 231 4034 84 3984 
L 41 4094 
L 897 4444 
L 1041 4444 
z
" transform="scale(0.015625)"/>
       <path id="TimesNewRomanPSMT-61" d="M 1822 413 
Q 1381 72 1269 19 
Q 1100 -59 909 -59 
Q 613 -59 420 144 
Q 228 347 228 678 
Q 228 888 322 1041 
Q 450 1253 767 1440 
Q 1084 1628 1822 1897 
L 1822 2009 
Q 1822 2438 1686 2597 
Q 1550 2756 1291 2756 
Q 1094 2756 978 2650 
Q 859 2544 859 2406 
L 866 2225 
Q 866 2081 792 2003 
Q 719 1925 600 1925 
Q 484 1925 411 2006 
Q 338 2088 338 2228 
Q 338 2497 613 2722 
Q 888 2947 1384 2947 
Q 1766 2947 2009 2819 
Q 2194 2722 2281 2516 
Q 2338 2381 2338 1966 
L 2338 994 
Q 2338 584 2353 492 
Q 2369 400 2405 369 
Q 2441 338 2488 338 
Q 2538 338 2575 359 
Q 2641 400 2828 588 
L 2828 413 
Q 2478 -56 2159 -56 
Q 2006 -56 1915 50 
Q 1825 156 1822 413 
z
M 1822 616 
L 1822 1706 
Q 1350 1519 1213 1441 
Q 966 1303 859 1153 
Q 753 1003 753 825 
Q 753 600 887 451 
Q 1022 303 1197 303 
Q 1434 303 1822 616 
z
" transform="scale(0.015625)"/>
       <path id="TimesNewRomanPSMT-67" d="M 966 1044 
Q 703 1172 562 1401 
Q 422 1631 422 1909 
Q 422 2334 742 2640 
Q 1063 2947 1563 2947 
Q 1972 2947 2272 2747 
L 2878 2747 
Q 3013 2747 3034 2739 
Q 3056 2731 3066 2713 
Q 3084 2684 3084 2613 
Q 3084 2531 3069 2500 
Q 3059 2484 3036 2475 
Q 3013 2466 2878 2466 
L 2506 2466 
Q 2681 2241 2681 1891 
Q 2681 1491 2375 1206 
Q 2069 922 1553 922 
Q 1341 922 1119 984 
Q 981 866 932 777 
Q 884 688 884 625 
Q 884 572 936 522 
Q 988 472 1138 450 
Q 1225 438 1575 428 
Q 2219 413 2409 384 
Q 2700 344 2873 169 
Q 3047 -6 3047 -263 
Q 3047 -616 2716 -925 
Q 2228 -1381 1444 -1381 
Q 841 -1381 425 -1109 
Q 191 -953 191 -784 
Q 191 -709 225 -634 
Q 278 -519 444 -313 
Q 466 -284 763 25 
Q 600 122 533 198 
Q 466 275 466 372 
Q 466 481 555 628 
Q 644 775 966 1044 
z
M 1509 2797 
Q 1278 2797 1122 2612 
Q 966 2428 966 2047 
Q 966 1553 1178 1281 
Q 1341 1075 1591 1075 
Q 1828 1075 1981 1253 
Q 2134 1431 2134 1813 
Q 2134 2309 1919 2591 
Q 1759 2797 1509 2797 
z
M 934 0 
Q 788 -159 713 -296 
Q 638 -434 638 -550 
Q 638 -700 819 -813 
Q 1131 -1006 1722 -1006 
Q 2284 -1006 2551 -807 
Q 2819 -609 2819 -384 
Q 2819 -222 2659 -153 
Q 2497 -84 2016 -72 
Q 1313 -53 934 0 
z
" transform="scale(0.015625)"/>
       <path id="TimesNewRomanPSMT-70" d="M -6 2578 
L 875 2934 
L 994 2934 
L 994 2266 
Q 1216 2644 1439 2795 
Q 1663 2947 1909 2947 
Q 2341 2947 2628 2609 
Q 2981 2197 2981 1534 
Q 2981 794 2556 309 
Q 2206 -88 1675 -88 
Q 1444 -88 1275 -22 
Q 1150 25 994 166 
L 994 -706 
Q 994 -1000 1030 -1079 
Q 1066 -1159 1155 -1206 
Q 1244 -1253 1478 -1253 
L 1478 -1369 
L -22 -1369 
L -22 -1253 
L 56 -1253 
Q 228 -1256 350 -1188 
Q 409 -1153 442 -1076 
Q 475 -1000 475 -688 
L 475 2019 
Q 475 2297 450 2372 
Q 425 2447 370 2484 
Q 316 2522 222 2522 
Q 147 2522 31 2478 
L -6 2578 
z
M 994 2081 
L 994 1013 
Q 994 666 1022 556 
Q 1066 375 1236 237 
Q 1406 100 1666 100 
Q 1978 100 2172 344 
Q 2425 663 2425 1241 
Q 2425 1897 2138 2250 
Q 1938 2494 1663 2494 
Q 1513 2494 1366 2419 
Q 1253 2363 994 2081 
z
" transform="scale(0.015625)"/>
       <path id="TimesNewRomanPSMT-6b" d="M 1047 4444 
L 1047 1597 
L 1775 2259 
Q 2006 2472 2044 2528 
Q 2069 2566 2069 2603 
Q 2069 2666 2017 2711 
Q 1966 2756 1847 2763 
L 1847 2863 
L 3091 2863 
L 3091 2763 
Q 2834 2756 2664 2684 
Q 2494 2613 2291 2428 
L 1556 1750 
L 2291 822 
Q 2597 438 2703 334 
Q 2853 188 2966 144 
Q 3044 113 3238 113 
L 3238 0 
L 1847 0 
L 1847 113 
Q 1966 116 2008 148 
Q 2050 181 2050 241 
Q 2050 313 1925 472 
L 1047 1594 
L 1047 644 
Q 1047 366 1086 278 
Q 1125 191 1197 153 
Q 1269 116 1509 113 
L 1509 0 
L 53 0 
L 53 113 
Q 272 113 381 166 
Q 447 200 481 272 
Q 528 375 528 628 
L 528 3234 
Q 528 3731 506 3842 
Q 484 3953 434 3995 
Q 384 4038 303 4038 
Q 238 4038 106 3984 
L 53 4094 
L 903 4444 
L 1047 4444 
z
" transform="scale(0.015625)"/>
       <path id="TimesNewRomanPSMT-77" d="M 41 2863 
L 1241 2863 
L 1241 2747 
Q 1075 2734 1023 2687 
Q 972 2641 972 2553 
Q 972 2456 1025 2319 
L 1638 672 
L 2253 2013 
L 2091 2434 
Q 2016 2622 1894 2694 
Q 1825 2738 1638 2747 
L 1638 2863 
L 3000 2863 
L 3000 2747 
Q 2775 2738 2681 2666 
Q 2619 2616 2619 2506 
Q 2619 2444 2644 2378 
L 3294 734 
L 3897 2319 
Q 3959 2488 3959 2588 
Q 3959 2647 3898 2694 
Q 3838 2741 3659 2747 
L 3659 2863 
L 4563 2863 
L 4563 2747 
Q 4291 2706 4163 2378 
L 3206 -88 
L 3078 -88 
L 2363 1741 
L 1528 -88 
L 1413 -88 
L 494 2319 
Q 403 2547 315 2626 
Q 228 2706 41 2747 
L 41 2863 
z
" transform="scale(0.015625)"/>
      </defs>
      <use xlink:href="#TimesNewRomanPSMT-25"/>
      <use xlink:href="#TimesNewRomanPSMT-20" x="83.300781"/>
      <use xlink:href="#TimesNewRomanPSMT-63" x="108.300781"/>
      <use xlink:href="#TimesNewRomanPSMT-68" x="152.685547"/>
      <use xlink:href="#TimesNewRomanPSMT-61" x="202.685547"/>
      <use xlink:href="#TimesNewRomanPSMT-6e" x="247.070312"/>
      <use xlink:href="#TimesNewRomanPSMT-67" x="297.070312"/>
      <use xlink:href="#TimesNewRomanPSMT-65" x="347.070312"/>
      <use xlink:href="#TimesNewRomanPSMT-20" x="391.455078"/>
      <use xlink:href="#TimesNewRomanPSMT-69" x="416.455078"/>
      <use xlink:href="#TimesNewRomanPSMT-6e" x="444.238281"/>
      <use xlink:href="#TimesNewRomanPSMT-20" x="494.238281"/>
      <use xlink:href="#TimesNewRomanPSMT-70" x="519.238281"/>
      <use xlink:href="#TimesNewRomanPSMT-65" x="569.238281"/>
      <use xlink:href="#TimesNewRomanPSMT-61" x="613.623047"/>
      <use xlink:href="#TimesNewRomanPSMT-6b" x="658.007812"/>
      <use xlink:href="#TimesNewRomanPSMT-20" x="708.007812"/>
      <use xlink:href="#TimesNewRomanPSMT-70" x="733.007812"/>
      <use xlink:href="#TimesNewRomanPSMT-6f" x="783.007812"/>
      <use xlink:href="#TimesNewRomanPSMT-77" x="833.007812"/>
      <use xlink:href="#TimesNewRomanPSMT-65" x="905.224609"/>
      <use xlink:href="#TimesNewRomanPSMT-72" x="949.609375"/>
      <use xlink:href="#TimesNewRomanPSMT-20" x="982.910156"/>
      <use xlink:href="#TimesNewRomanPSMT-64" x="1007.910156"/>
      <use xlink:href="#TimesNewRomanPSMT-65" x="1057.910156"/>
      <use xlink:href="#TimesNewRomanPSMT-6d" x="1102.294922"/>
      <use xlink:href="#TimesNewRomanPSMT-61" x="1180.078125"/>
      <use xlink:href="#TimesNewRomanPSMT-6e" x="1224.462891"/>
      <use xlink:href="#TimesNewRomanPSMT-64" x="1274.462891"/>
      <use xlink:href="#TimesNewRomanPSMT-73" x="1324.462891"/>
     </g>
    </g>
   </g>
   <g id="line2d_13">
    <path d="M 127.186984 319.824625 
L 1201.640625 319.824625 
" clip-path="url(#p1ca1e7a7df)" style="fill: none; stroke-dasharray: 3.7,1.6; stroke-dashoffset: 0; stroke: #808080"/>
   </g>
   <g id="line2d_14">
    <path d="M 273.70339 590.20025 
L 273.70339 49.449 
" clip-path="url(#p1ca1e7a7df)" style="fill: none; stroke-dasharray: 3.7,1.6; stroke-dashoffset: 0; stroke: #808080"/>
   </g>
   <g id="patch_17">
    <path d="M 127.186984 590.20025 
L 127.186984 49.449 
" style="fill: none; stroke: #000000; stroke-width: 0.8; stroke-linejoin: miter; stroke-linecap: square"/>
   </g>
   <g id="patch_18">
    <path d="M 1201.640625 590.20025 
L 1201.640625 49.449 
" style="fill: none; stroke: #000000; stroke-width: 0.8; stroke-linejoin: miter; stroke-linecap: square"/>
   </g>
   <g id="patch_19">
    <path d="M 127.186984 590.20025 
L 1201.640625 590.20025 
" style="fill: none; stroke: #000000; stroke-width: 0.8; stroke-linejoin: miter; stroke-linecap: square"/>
   </g>
   <g id="patch_20">
    <path d="M 127.186984 49.449 
L 1201.640625 49.449 
" style="fill: none; stroke: #000000; stroke-width: 0.8; stroke-linejoin: miter; stroke-linecap: square"/>
   </g>
   <g id="text_15">
    <!-- Auckland: Circle -->
    <g transform="translate(137.931521 544.505738) scale(0.12 -0.12)">
     <defs>
      <path id="TimesNewRomanPSMT-41" d="M 2928 1419 
L 1288 1419 
L 1000 750 
Q 894 503 894 381 
Q 894 284 986 211 
Q 1078 138 1384 116 
L 1384 0 
L 50 0 
L 50 116 
Q 316 163 394 238 
Q 553 388 747 847 
L 2238 4334 
L 2347 4334 
L 3822 809 
Q 4000 384 4145 257 
Q 4291 131 4550 116 
L 4550 0 
L 2878 0 
L 2878 116 
Q 3131 128 3220 200 
Q 3309 272 3309 375 
Q 3309 513 3184 809 
L 2928 1419 
z
M 2841 1650 
L 2122 3363 
L 1384 1650 
L 2841 1650 
z
" transform="scale(0.015625)"/>
      <path id="TimesNewRomanPSMT-6c" d="M 1184 4444 
L 1184 647 
Q 1184 378 1223 290 
Q 1263 203 1344 158 
Q 1425 113 1647 113 
L 1647 0 
L 244 0 
L 244 113 
Q 441 113 512 153 
Q 584 194 625 287 
Q 666 381 666 647 
L 666 3247 
Q 666 3731 644 3842 
Q 622 3953 573 3993 
Q 525 4034 450 4034 
Q 369 4034 244 3984 
L 191 4094 
L 1044 4444 
L 1184 4444 
z
" transform="scale(0.015625)"/>
      <path id="TimesNewRomanPSMT-3a" d="M 903 2950 
Q 1047 2950 1148 2848 
Q 1250 2747 1250 2603 
Q 1250 2459 1148 2357 
Q 1047 2256 903 2256 
Q 759 2256 657 2357 
Q 556 2459 556 2603 
Q 556 2747 657 2848 
Q 759 2950 903 2950 
z
M 897 609 
Q 1044 609 1145 506 
Q 1247 403 1247 259 
Q 1247 116 1144 14 
Q 1041 -88 897 -88 
Q 753 -88 651 14 
Q 550 116 550 259 
Q 550 403 651 506 
Q 753 609 897 609 
z
" transform="scale(0.015625)"/>
     </defs>
     <use xlink:href="#TimesNewRomanPSMT-41"/>
     <use xlink:href="#TimesNewRomanPSMT-75" x="72.216797"/>
     <use xlink:href="#TimesNewRomanPSMT-63" x="122.216797"/>
     <use xlink:href="#TimesNewRomanPSMT-6b" x="166.601562"/>
     <use xlink:href="#TimesNewRomanPSMT-6c" x="216.601562"/>
     <use xlink:href="#TimesNewRomanPSMT-61" x="244.384766"/>
     <use xlink:href="#TimesNewRomanPSMT-6e" x="288.769531"/>
     <use xlink:href="#TimesNewRomanPSMT-64" x="338.769531"/>
     <use xlink:href="#TimesNewRomanPSMT-3a" x="388.769531"/>
     <use xlink:href="#TimesNewRomanPSMT-20" x="416.552734"/>
     <use xlink:href="#TimesNewRomanPSMT-43" x="441.552734"/>
     <use xlink:href="#TimesNewRomanPSMT-69" x="508.251953"/>
     <use xlink:href="#TimesNewRomanPSMT-72" x="536.035156"/>
     <use xlink:href="#TimesNewRomanPSMT-63" x="569.335938"/>
     <use xlink:href="#TimesNewRomanPSMT-6c" x="613.720703"/>
     <use xlink:href="#TimesNewRomanPSMT-65" x="641.503906"/>
    </g>
    <!-- Palmerston North: Triangle -->
    <g transform="translate(137.931521 557.071612) scale(0.12 -0.12)">
     <defs>
      <path id="TimesNewRomanPSMT-50" d="M 1313 1984 
L 1313 750 
Q 1313 350 1400 253 
Q 1519 116 1759 116 
L 1922 116 
L 1922 0 
L 106 0 
L 106 116 
L 266 116 
Q 534 116 650 291 
Q 713 388 713 750 
L 713 3488 
Q 713 3888 628 3984 
Q 506 4122 266 4122 
L 106 4122 
L 106 4238 
L 1659 4238 
Q 2228 4238 2556 4120 
Q 2884 4003 3109 3725 
Q 3334 3447 3334 3066 
Q 3334 2547 2992 2222 
Q 2650 1897 2025 1897 
Q 1872 1897 1694 1919 
Q 1516 1941 1313 1984 
z
M 1313 2163 
Q 1478 2131 1606 2115 
Q 1734 2100 1825 2100 
Q 2150 2100 2386 2351 
Q 2622 2603 2622 3003 
Q 2622 3278 2509 3514 
Q 2397 3750 2190 3867 
Q 1984 3984 1722 3984 
Q 1563 3984 1313 3925 
L 1313 2163 
z
" transform="scale(0.015625)"/>
      <path id="TimesNewRomanPSMT-4e" d="M -84 4238 
L 1066 4238 
L 3656 1059 
L 3656 3503 
Q 3656 3894 3569 3991 
Q 3453 4122 3203 4122 
L 3056 4122 
L 3056 4238 
L 4531 4238 
L 4531 4122 
L 4381 4122 
Q 4113 4122 4000 3959 
Q 3931 3859 3931 3503 
L 3931 -69 
L 3819 -69 
L 1025 3344 
L 1025 734 
Q 1025 344 1109 247 
Q 1228 116 1475 116 
L 1625 116 
L 1625 0 
L 150 0 
L 150 116 
L 297 116 
Q 569 116 681 278 
Q 750 378 750 734 
L 750 3681 
Q 566 3897 470 3965 
Q 375 4034 191 4094 
Q 100 4122 -84 4122 
L -84 4238 
z
" transform="scale(0.015625)"/>
      <path id="TimesNewRomanPSMT-54" d="M 3703 4238 
L 3750 3244 
L 3631 3244 
Q 3597 3506 3538 3619 
Q 3441 3800 3280 3886 
Q 3119 3972 2856 3972 
L 2259 3972 
L 2259 734 
Q 2259 344 2344 247 
Q 2463 116 2709 116 
L 2856 116 
L 2856 0 
L 1059 0 
L 1059 116 
L 1209 116 
Q 1478 116 1591 278 
Q 1659 378 1659 734 
L 1659 3972 
L 1150 3972 
Q 853 3972 728 3928 
Q 566 3869 450 3700 
Q 334 3531 313 3244 
L 194 3244 
L 244 4238 
L 3703 4238 
z
" transform="scale(0.015625)"/>
     </defs>
     <use xlink:href="#TimesNewRomanPSMT-50"/>
     <use xlink:href="#TimesNewRomanPSMT-61" x="55.615234"/>
     <use xlink:href="#TimesNewRomanPSMT-6c" x="100"/>
     <use xlink:href="#TimesNewRomanPSMT-6d" x="127.783203"/>
     <use xlink:href="#TimesNewRomanPSMT-65" x="205.566406"/>
     <use xlink:href="#TimesNewRomanPSMT-72" x="249.951172"/>
     <use xlink:href="#TimesNewRomanPSMT-73" x="283.251953"/>
     <use xlink:href="#TimesNewRomanPSMT-74" x="322.167969"/>
     <use xlink:href="#TimesNewRomanPSMT-6f" x="349.951172"/>
     <use xlink:href="#TimesNewRomanPSMT-6e" x="399.951172"/>
     <use xlink:href="#TimesNewRomanPSMT-20" x="449.951172"/>
     <use xlink:href="#TimesNewRomanPSMT-4e" x="474.951172"/>
     <use xlink:href="#TimesNewRomanPSMT-6f" x="547.167969"/>
     <use xlink:href="#TimesNewRomanPSMT-72" x="597.167969"/>
     <use xlink:href="#TimesNewRomanPSMT-74" x="630.46875"/>
     <use xlink:href="#TimesNewRomanPSMT-68" x="658.251953"/>
     <use xlink:href="#TimesNewRomanPSMT-3a" x="708.251953"/>
     <use xlink:href="#TimesNewRomanPSMT-20" x="736.035156"/>
     <use xlink:href="#TimesNewRomanPSMT-54" x="759.285156"/>
     <use xlink:href="#TimesNewRomanPSMT-72" x="816.869141"/>
     <use xlink:href="#TimesNewRomanPSMT-69" x="850.169922"/>
     <use xlink:href="#TimesNewRomanPSMT-61" x="877.953125"/>
     <use xlink:href="#TimesNewRomanPSMT-6e" x="922.337891"/>
     <use xlink:href="#TimesNewRomanPSMT-67" x="972.337891"/>
     <use xlink:href="#TimesNewRomanPSMT-6c" x="1022.337891"/>
     <use xlink:href="#TimesNewRomanPSMT-65" x="1050.121094"/>
    </g>
    <!-- Christchurch: Square -->
    <g transform="translate(137.931521 569.659987) scale(0.12 -0.12)">
     <defs>
      <path id="TimesNewRomanPSMT-53" d="M 2934 4334 
L 2934 2869 
L 2819 2869 
Q 2763 3291 2617 3541 
Q 2472 3791 2203 3937 
Q 1934 4084 1647 4084 
Q 1322 4084 1109 3886 
Q 897 3688 897 3434 
Q 897 3241 1031 3081 
Q 1225 2847 1953 2456 
Q 2547 2138 2764 1967 
Q 2981 1797 3098 1565 
Q 3216 1334 3216 1081 
Q 3216 600 2842 251 
Q 2469 -97 1881 -97 
Q 1697 -97 1534 -69 
Q 1438 -53 1133 45 
Q 828 144 747 144 
Q 669 144 623 97 
Q 578 50 556 -97 
L 441 -97 
L 441 1356 
L 556 1356 
Q 638 900 775 673 
Q 913 447 1195 297 
Q 1478 147 1816 147 
Q 2206 147 2432 353 
Q 2659 559 2659 841 
Q 2659 997 2573 1156 
Q 2488 1316 2306 1453 
Q 2184 1547 1640 1851 
Q 1097 2156 867 2337 
Q 638 2519 519 2737 
Q 400 2956 400 3219 
Q 400 3675 750 4004 
Q 1100 4334 1641 4334 
Q 1978 4334 2356 4169 
Q 2531 4091 2603 4091 
Q 2684 4091 2736 4139 
Q 2788 4188 2819 4334 
L 2934 4334 
z
" transform="scale(0.015625)"/>
      <path id="TimesNewRomanPSMT-71" d="M 2734 2947 
L 2734 -734 
Q 2734 -1009 2771 -1087 
Q 2809 -1166 2889 -1209 
Q 2969 -1253 3200 -1253 
L 3200 -1369 
L 1756 -1369 
L 1756 -1253 
L 1816 -1253 
Q 1991 -1253 2081 -1203 
Q 2144 -1169 2181 -1080 
Q 2219 -991 2219 -734 
L 2219 497 
Q 1934 159 1721 35 
Q 1509 -88 1281 -88 
Q 866 -88 539 290 
Q 213 669 213 1303 
Q 213 2031 644 2489 
Q 1075 2947 1684 2947 
Q 1863 2947 2013 2897 
Q 2163 2847 2281 2747 
Q 2463 2834 2628 2947 
L 2734 2947 
z
M 2219 694 
L 2219 2038 
Q 2219 2272 2158 2406 
Q 2097 2541 1940 2634 
Q 1784 2728 1588 2728 
Q 1238 2728 988 2431 
Q 738 2134 738 1531 
Q 738 953 992 653 
Q 1247 353 1606 353 
Q 1791 353 1934 433 
Q 2078 513 2219 694 
z
" transform="scale(0.015625)"/>
     </defs>
     <use xlink:href="#TimesNewRomanPSMT-43"/>
     <use xlink:href="#TimesNewRomanPSMT-68" x="66.699219"/>
     <use xlink:href="#TimesNewRomanPSMT-72" x="116.699219"/>
     <use xlink:href="#TimesNewRomanPSMT-69" x="150"/>
     <use xlink:href="#TimesNewRomanPSMT-73" x="177.783203"/>
     <use xlink:href="#TimesNewRomanPSMT-74" x="216.699219"/>
     <use xlink:href="#TimesNewRomanPSMT-63" x="244.482422"/>
     <use xlink:href="#TimesNewRomanPSMT-68" x="288.867188"/>
     <use xlink:href="#TimesNewRomanPSMT-75" x="338.867188"/>
     <use xlink:href="#TimesNewRomanPSMT-72" x="388.867188"/>
     <use xlink:href="#TimesNewRomanPSMT-63" x="422.167969"/>
     <use xlink:href="#TimesNewRomanPSMT-68" x="466.552734"/>
     <use xlink:href="#TimesNewRomanPSMT-3a" x="516.552734"/>
     <use xlink:href="#TimesNewRomanPSMT-20" x="544.335938"/>
     <use xlink:href="#TimesNewRomanPSMT-53" x="569.335938"/>
     <use xlink:href="#TimesNewRomanPSMT-71" x="624.951172"/>
     <use xlink:href="#TimesNewRomanPSMT-75" x="674.951172"/>
     <use xlink:href="#TimesNewRomanPSMT-61" x="724.951172"/>
     <use xlink:href="#TimesNewRomanPSMT-72" x="769.335938"/>
     <use xlink:href="#TimesNewRomanPSMT-65" x="802.636719"/>
    </g>
    <!-- Dunedin: Diamond -->
    <g transform="translate(137.931521 582.225862) scale(0.12 -0.12)">
     <defs>
      <path id="TimesNewRomanPSMT-44" d="M 109 0 
L 109 116 
L 269 116 
Q 538 116 650 288 
Q 719 391 719 750 
L 719 3488 
Q 719 3884 631 3984 
Q 509 4122 269 4122 
L 109 4122 
L 109 4238 
L 1834 4238 
Q 2784 4238 3279 4022 
Q 3775 3806 4076 3303 
Q 4378 2800 4378 2141 
Q 4378 1256 3841 663 
Q 3238 0 2003 0 
L 109 0 
z
M 1319 306 
Q 1716 219 1984 219 
Q 2709 219 3187 728 
Q 3666 1238 3666 2109 
Q 3666 2988 3187 3494 
Q 2709 4000 1959 4000 
Q 1678 4000 1319 3909 
L 1319 306 
z
" transform="scale(0.015625)"/>
     </defs>
     <use xlink:href="#TimesNewRomanPSMT-44"/>
     <use xlink:href="#TimesNewRomanPSMT-75" x="72.216797"/>
     <use xlink:href="#TimesNewRomanPSMT-6e" x="122.216797"/>
     <use xlink:href="#TimesNewRomanPSMT-65" x="172.216797"/>
     <use xlink:href="#TimesNewRomanPSMT-64" x="216.601562"/>
     <use xlink:href="#TimesNewRomanPSMT-69" x="266.601562"/>
     <use xlink:href="#TimesNewRomanPSMT-6e" x="294.384766"/>
     <use xlink:href="#TimesNewRomanPSMT-3a" x="344.384766"/>
     <use xlink:href="#TimesNewRomanPSMT-20" x="372.167969"/>
     <use xlink:href="#TimesNewRomanPSMT-44" x="397.167969"/>
     <use xlink:href="#TimesNewRomanPSMT-69" x="469.384766"/>
     <use xlink:href="#TimesNewRomanPSMT-61" x="497.167969"/>
     <use xlink:href="#TimesNewRomanPSMT-6d" x="541.552734"/>
     <use xlink:href="#TimesNewRomanPSMT-6f" x="619.335938"/>
     <use xlink:href="#TimesNewRomanPSMT-6e" x="669.335938"/>
     <use xlink:href="#TimesNewRomanPSMT-64" x="719.335938"/>
    </g>
   </g>
   <g id="text_16">
    <!-- Impact of DEEDs strategies -->
    <g transform="translate(597.267242 43.449) scale(0.12 -0.12)">
     <defs>
      <path id="TimesNewRomanPSMT-49" d="M 1975 116 
L 1975 0 
L 159 0 
L 159 116 
L 309 116 
Q 572 116 691 269 
Q 766 369 766 750 
L 766 3488 
Q 766 3809 725 3913 
Q 694 3991 597 4047 
Q 459 4122 309 4122 
L 159 4122 
L 159 4238 
L 1975 4238 
L 1975 4122 
L 1822 4122 
Q 1563 4122 1444 3969 
Q 1366 3869 1366 3488 
L 1366 750 
Q 1366 428 1406 325 
Q 1438 247 1538 191 
Q 1672 116 1822 116 
L 1975 116 
z
" transform="scale(0.015625)"/>
      <path id="TimesNewRomanPSMT-66" d="M 1319 2638 
L 1319 756 
Q 1319 356 1406 250 
Q 1522 113 1716 113 
L 1975 113 
L 1975 0 
L 266 0 
L 266 113 
L 394 113 
Q 519 113 622 175 
Q 725 238 764 344 
Q 803 450 803 756 
L 803 2638 
L 247 2638 
L 247 2863 
L 803 2863 
L 803 3050 
Q 803 3478 940 3775 
Q 1078 4072 1361 4255 
Q 1644 4438 1997 4438 
Q 2325 4438 2600 4225 
Q 2781 4084 2781 3909 
Q 2781 3816 2700 3733 
Q 2619 3650 2525 3650 
Q 2453 3650 2373 3701 
Q 2294 3753 2178 3923 
Q 2063 4094 1966 4153 
Q 1869 4213 1750 4213 
Q 1606 4213 1506 4136 
Q 1406 4059 1362 3898 
Q 1319 3738 1319 3069 
L 1319 2863 
L 2056 2863 
L 2056 2638 
L 1319 2638 
z
" transform="scale(0.015625)"/>
      <path id="TimesNewRomanPSMT-45" d="M 1338 4006 
L 1338 2331 
L 2269 2331 
Q 2631 2331 2753 2441 
Q 2916 2584 2934 2947 
L 3050 2947 
L 3050 1472 
L 2934 1472 
Q 2891 1781 2847 1869 
Q 2791 1978 2662 2040 
Q 2534 2103 2269 2103 
L 1338 2103 
L 1338 706 
Q 1338 425 1363 364 
Q 1388 303 1450 267 
Q 1513 231 1688 231 
L 2406 231 
Q 2766 231 2928 281 
Q 3091 331 3241 478 
Q 3434 672 3638 1063 
L 3763 1063 
L 3397 0 
L 131 0 
L 131 116 
L 281 116 
Q 431 116 566 188 
Q 666 238 702 338 
Q 738 438 738 747 
L 738 3500 
Q 738 3903 656 3997 
Q 544 4122 281 4122 
L 131 4122 
L 131 4238 
L 3397 4238 
L 3444 3309 
L 3322 3309 
Q 3256 3644 3176 3769 
Q 3097 3894 2941 3959 
Q 2816 4006 2500 4006 
L 1338 4006 
z
" transform="scale(0.015625)"/>
     </defs>
     <use xlink:href="#TimesNewRomanPSMT-49"/>
     <use xlink:href="#TimesNewRomanPSMT-6d" x="33.300781"/>
     <use xlink:href="#TimesNewRomanPSMT-70" x="111.083984"/>
     <use xlink:href="#TimesNewRomanPSMT-61" x="161.083984"/>
     <use xlink:href="#TimesNewRomanPSMT-63" x="205.46875"/>
     <use xlink:href="#TimesNewRomanPSMT-74" x="249.853516"/>
     <use xlink:href="#TimesNewRomanPSMT-20" x="277.636719"/>
     <use xlink:href="#TimesNewRomanPSMT-6f" x="302.636719"/>
     <use xlink:href="#TimesNewRomanPSMT-66" x="352.636719"/>
     <use xlink:href="#TimesNewRomanPSMT-20" x="385.9375"/>
     <use xlink:href="#TimesNewRomanPSMT-44" x="410.9375"/>
     <use xlink:href="#TimesNewRomanPSMT-45" x="483.154297"/>
     <use xlink:href="#TimesNewRomanPSMT-45" x="544.238281"/>
     <use xlink:href="#TimesNewRomanPSMT-44" x="605.322266"/>
     <use xlink:href="#TimesNewRomanPSMT-73" x="677.539062"/>
     <use xlink:href="#TimesNewRomanPSMT-20" x="716.455078"/>
     <use xlink:href="#TimesNewRomanPSMT-73" x="741.455078"/>
     <use xlink:href="#TimesNewRomanPSMT-74" x="780.371094"/>
     <use xlink:href="#TimesNewRomanPSMT-72" x="808.154297"/>
     <use xlink:href="#TimesNewRomanPSMT-61" x="841.455078"/>
     <use xlink:href="#TimesNewRomanPSMT-74" x="885.839844"/>
     <use xlink:href="#TimesNewRomanPSMT-65" x="913.623047"/>
     <use xlink:href="#TimesNewRomanPSMT-67" x="958.007812"/>
     <use xlink:href="#TimesNewRomanPSMT-69" x="1008.007812"/>
     <use xlink:href="#TimesNewRomanPSMT-65" x="1035.791016"/>
     <use xlink:href="#TimesNewRomanPSMT-73" x="1080.175781"/>
    </g>
   </g>
   <g id="legend_1">
    <g id="patch_21">
     <path d="M 134.186984 255.452125 
L 267.290109 255.452125 
Q 269.290109 255.452125 269.290109 253.452125 
L 269.290109 56.449 
Q 269.290109 54.449 267.290109 54.449 
L 134.186984 54.449 
Q 132.186984 54.449 132.186984 56.449 
L 132.186984 253.452125 
Q 132.186984 255.452125 134.186984 255.452125 
z
" style="fill: #ffffff; opacity: 0.8; stroke: #ffffff; stroke-linejoin: miter"/>
    </g>
    <g id="patch_22">
     <path d="M 136.186984 65.449 
L 156.186984 65.449 
L 156.186984 58.449 
L 136.186984 58.449 
z
" style="fill: #000080; opacity: 0.5; stroke-dasharray: 3.7,1.6; stroke-dashoffset: 0; stroke: #808080; stroke-linejoin: miter"/>
    </g>
    <g id="text_17">
     <!-- Insulation -->
     <g transform="translate(164.186984 65.449) scale(0.1 -0.1)">
      <use xlink:href="#TimesNewRomanPSMT-49"/>
      <use xlink:href="#TimesNewRomanPSMT-6e" x="33.300781"/>
      <use xlink:href="#TimesNewRomanPSMT-73" x="83.300781"/>
      <use xlink:href="#TimesNewRomanPSMT-75" x="122.216797"/>
      <use xlink:href="#TimesNewRomanPSMT-6c" x="172.216797"/>
      <use xlink:href="#TimesNewRomanPSMT-61" x="200"/>
      <use xlink:href="#TimesNewRomanPSMT-74" x="244.384766"/>
      <use xlink:href="#TimesNewRomanPSMT-69" x="272.167969"/>
      <use xlink:href="#TimesNewRomanPSMT-6f" x="299.951172"/>
      <use xlink:href="#TimesNewRomanPSMT-6e" x="349.951172"/>
     </g>
    </g>
    <g id="patch_23">
     <path d="M 136.186984 79.588062 
L 156.186984 79.588062 
L 156.186984 72.588062 
L 136.186984 72.588062 
z
" style="fill: #003669; opacity: 0.5; stroke-dasharray: 3.7,1.6; stroke-dashoffset: 0; stroke: #808080; stroke-linejoin: miter"/>
    </g>
    <g id="text_18">
     <!-- HPSH -->
     <g transform="translate(164.186984 79.588062) scale(0.1 -0.1)">
      <defs>
       <path id="TimesNewRomanPSMT-48" d="M 1316 2272 
L 3284 2272 
L 3284 3484 
Q 3284 3809 3244 3913 
Q 3213 3991 3113 4047 
Q 2978 4122 2828 4122 
L 2678 4122 
L 2678 4238 
L 4491 4238 
L 4491 4122 
L 4341 4122 
Q 4191 4122 4056 4050 
Q 3956 4000 3920 3898 
Q 3884 3797 3884 3484 
L 3884 750 
Q 3884 428 3925 325 
Q 3956 247 4053 191 
Q 4191 116 4341 116 
L 4491 116 
L 4491 0 
L 2678 0 
L 2678 116 
L 2828 116 
Q 3088 116 3206 269 
Q 3284 369 3284 750 
L 3284 2041 
L 1316 2041 
L 1316 750 
Q 1316 428 1356 325 
Q 1388 247 1488 191 
Q 1622 116 1772 116 
L 1925 116 
L 1925 0 
L 109 0 
L 109 116 
L 259 116 
Q 522 116 641 269 
Q 716 369 716 750 
L 716 3484 
Q 716 3809 675 3913 
Q 644 3991 547 4047 
Q 409 4122 259 4122 
L 109 4122 
L 109 4238 
L 1925 4238 
L 1925 4122 
L 1772 4122 
Q 1622 4122 1488 4050 
Q 1391 4000 1353 3898 
Q 1316 3797 1316 3484 
L 1316 2272 
z
" transform="scale(0.015625)"/>
      </defs>
      <use xlink:href="#TimesNewRomanPSMT-48"/>
      <use xlink:href="#TimesNewRomanPSMT-50" x="72.216797"/>
      <use xlink:href="#TimesNewRomanPSMT-53" x="127.832031"/>
      <use xlink:href="#TimesNewRomanPSMT-48" x="183.447266"/>
     </g>
    </g>
    <g id="patch_24">
     <path d="M 136.186984 93.727125 
L 156.186984 93.727125 
L 156.186984 86.727125 
L 136.186984 86.727125 
z
" style="fill: #00a9ff; opacity: 0.5; stroke-dasharray: 3.7,1.6; stroke-dashoffset: 0; stroke: #808080; stroke-linejoin: miter"/>
    </g>
    <g id="text_19">
     <!-- Ele CK -->
     <g transform="translate(164.186984 93.727125) scale(0.1 -0.1)">
      <defs>
       <path id="TimesNewRomanPSMT-4b" d="M 1913 2350 
L 3475 797 
Q 3859 413 4131 273 
Q 4403 134 4675 116 
L 4675 0 
L 2659 0 
L 2659 116 
Q 2841 116 2920 177 
Q 3000 238 3000 313 
Q 3000 388 2970 447 
Q 2941 506 2775 669 
L 1313 2116 
L 1313 750 
Q 1313 428 1353 325 
Q 1384 247 1484 191 
Q 1619 116 1769 116 
L 1913 116 
L 1913 0 
L 106 0 
L 106 116 
L 256 116 
Q 519 116 638 269 
Q 713 369 713 750 
L 713 3488 
Q 713 3809 672 3916 
Q 641 3991 544 4047 
Q 406 4122 256 4122 
L 106 4122 
L 106 4238 
L 1913 4238 
L 1913 4122 
L 1769 4122 
Q 1622 4122 1484 4050 
Q 1388 4000 1350 3900 
Q 1313 3800 1313 3488 
L 1313 2191 
Q 1375 2250 1741 2588 
Q 2669 3438 2863 3722 
Q 2947 3847 2947 3941 
Q 2947 4013 2881 4067 
Q 2816 4122 2659 4122 
L 2563 4122 
L 2563 4238 
L 4119 4238 
L 4119 4122 
Q 3981 4119 3868 4084 
Q 3756 4050 3593 3951 
Q 3431 3853 3194 3634 
Q 3125 3572 2559 2994 
L 1913 2350 
z
" transform="scale(0.015625)"/>
      </defs>
      <use xlink:href="#TimesNewRomanPSMT-45"/>
      <use xlink:href="#TimesNewRomanPSMT-6c" x="61.083984"/>
      <use xlink:href="#TimesNewRomanPSMT-65" x="88.867188"/>
      <use xlink:href="#TimesNewRomanPSMT-20" x="133.251953"/>
      <use xlink:href="#TimesNewRomanPSMT-43" x="158.251953"/>
      <use xlink:href="#TimesNewRomanPSMT-4b" x="224.951172"/>
     </g>
    </g>
    <g id="patch_25">
     <path d="M 136.186984 107.866187 
L 156.186984 107.866187 
L 156.186984 100.866187 
L 136.186984 100.866187 
z
" style="fill: #00fdd1; opacity: 0.5; stroke-dasharray: 3.7,1.6; stroke-dashoffset: 0; stroke: #808080; stroke-linejoin: miter"/>
    </g>
    <g id="text_20">
     <!-- Ele HW -->
     <g transform="translate(164.186984 107.866187) scale(0.1 -0.1)">
      <defs>
       <path id="TimesNewRomanPSMT-57" d="M 5991 4238 
L 5991 4122 
Q 5825 4122 5722 4062 
Q 5619 4003 5525 3841 
Q 5463 3731 5328 3319 
L 4147 -97 
L 4022 -97 
L 3056 2613 
L 2097 -97 
L 1984 -97 
L 725 3422 
Q 584 3816 547 3888 
Q 484 4006 376 4064 
Q 269 4122 84 4122 
L 84 4238 
L 1653 4238 
L 1653 4122 
L 1578 4122 
Q 1413 4122 1325 4047 
Q 1238 3972 1238 3866 
Q 1238 3756 1375 3363 
L 2209 984 
L 2913 3006 
L 2788 3363 
L 2688 3647 
Q 2622 3803 2541 3922 
Q 2500 3981 2441 4022 
Q 2363 4078 2284 4103 
Q 2225 4122 2097 4122 
L 2097 4238 
L 3747 4238 
L 3747 4122 
L 3634 4122 
Q 3459 4122 3378 4047 
Q 3297 3972 3297 3844 
Q 3297 3684 3438 3288 
L 4250 984 
L 5056 3319 
Q 5194 3706 5194 3856 
Q 5194 3928 5148 3990 
Q 5103 4053 5034 4078 
Q 4916 4122 4725 4122 
L 4725 4238 
L 5991 4238 
z
" transform="scale(0.015625)"/>
      </defs>
      <use xlink:href="#TimesNewRomanPSMT-45"/>
      <use xlink:href="#TimesNewRomanPSMT-6c" x="61.083984"/>
      <use xlink:href="#TimesNewRomanPSMT-65" x="88.867188"/>
      <use xlink:href="#TimesNewRomanPSMT-20" x="133.251953"/>
      <use xlink:href="#TimesNewRomanPSMT-48" x="158.251953"/>
      <use xlink:href="#TimesNewRomanPSMT-57" x="230.46875"/>
     </g>
    </g>
    <g id="patch_26">
     <path d="M 136.186984 122.00525 
L 156.186984 122.00525 
L 156.186984 115.00525 
L 136.186984 115.00525 
z
" style="fill: #00fe2a; opacity: 0.5; stroke-dasharray: 3.7,1.6; stroke-dashoffset: 0; stroke: #808080; stroke-linejoin: miter"/>
    </g>
    <g id="text_21">
     <!-- HPHW -->
     <g transform="translate(164.186984 122.00525) scale(0.1 -0.1)">
      <use xlink:href="#TimesNewRomanPSMT-48"/>
      <use xlink:href="#TimesNewRomanPSMT-50" x="72.216797"/>
      <use xlink:href="#TimesNewRomanPSMT-48" x="127.832031"/>
      <use xlink:href="#TimesNewRomanPSMT-57" x="200.048828"/>
     </g>
    </g>
    <g id="patch_27">
     <path d="M 136.186984 136.144312 
L 156.186984 136.144312 
L 156.186984 129.144312 
L 136.186984 129.144312 
z
" style="fill: #6cdb00; opacity: 0.5; stroke-dasharray: 3.7,1.6; stroke-dashoffset: 0; stroke: #808080; stroke-linejoin: miter"/>
    </g>
    <g id="text_22">
     <!-- Wood SH -->
     <g transform="translate(164.186984 136.144312) scale(0.1 -0.1)">
      <use xlink:href="#TimesNewRomanPSMT-57"/>
      <use xlink:href="#TimesNewRomanPSMT-6f" x="86.384766"/>
      <use xlink:href="#TimesNewRomanPSMT-6f" x="136.384766"/>
      <use xlink:href="#TimesNewRomanPSMT-64" x="186.384766"/>
      <use xlink:href="#TimesNewRomanPSMT-20" x="236.384766"/>
      <use xlink:href="#TimesNewRomanPSMT-53" x="261.384766"/>
      <use xlink:href="#TimesNewRomanPSMT-48" x="317"/>
     </g>
    </g>
    <g id="patch_28">
     <path d="M 136.186984 150.283375 
L 156.186984 150.283375 
L 156.186984 143.283375 
L 136.186984 143.283375 
z
" style="fill: #adff30; opacity: 0.5; stroke-dasharray: 3.7,1.6; stroke-dashoffset: 0; stroke: #808080; stroke-linejoin: miter"/>
    </g>
    <g id="text_23">
     <!-- Gas CK -->
     <g transform="translate(164.186984 150.283375) scale(0.1 -0.1)">
      <defs>
       <path id="TimesNewRomanPSMT-47" d="M 3928 4334 
L 4038 2997 
L 3928 2997 
Q 3763 3497 3500 3750 
Q 3122 4116 2528 4116 
Q 1719 4116 1297 3475 
Q 944 2934 944 2188 
Q 944 1581 1178 1081 
Q 1413 581 1792 348 
Q 2172 116 2572 116 
Q 2806 116 3025 175 
Q 3244 234 3447 350 
L 3447 1575 
Q 3447 1894 3398 1992 
Q 3350 2091 3248 2142 
Q 3147 2194 2891 2194 
L 2891 2313 
L 4531 2313 
L 4531 2194 
L 4453 2194 
Q 4209 2194 4119 2031 
Q 4056 1916 4056 1575 
L 4056 278 
Q 3697 84 3347 -6 
Q 2997 -97 2569 -97 
Q 1341 -97 703 691 
Q 225 1281 225 2053 
Q 225 2613 494 3125 
Q 813 3734 1369 4063 
Q 1834 4334 2469 4334 
Q 2700 4334 2889 4296 
Q 3078 4259 3425 4131 
Q 3600 4066 3659 4066 
Q 3719 4066 3761 4120 
Q 3803 4175 3813 4334 
L 3928 4334 
z
" transform="scale(0.015625)"/>
      </defs>
      <use xlink:href="#TimesNewRomanPSMT-47"/>
      <use xlink:href="#TimesNewRomanPSMT-61" x="72.216797"/>
      <use xlink:href="#TimesNewRomanPSMT-73" x="116.601562"/>
      <use xlink:href="#TimesNewRomanPSMT-20" x="155.517578"/>
      <use xlink:href="#TimesNewRomanPSMT-43" x="180.517578"/>
      <use xlink:href="#TimesNewRomanPSMT-4b" x="247.216797"/>
     </g>
    </g>
    <g id="patch_29">
     <path d="M 136.186984 164.422437 
L 156.186984 164.422437 
L 156.186984 157.422437 
L 136.186984 157.422437 
z
" style="fill: #fff500; opacity: 0.5; stroke-dasharray: 3.7,1.6; stroke-dashoffset: 0; stroke: #808080; stroke-linejoin: miter"/>
    </g>
    <g id="text_24">
     <!-- EV 40% -->
     <g transform="translate(164.186984 164.422437) scale(0.1 -0.1)">
      <defs>
       <path id="TimesNewRomanPSMT-56" d="M 4544 4238 
L 4544 4122 
Q 4319 4081 4203 3978 
Q 4038 3825 3909 3509 
L 2431 -97 
L 2316 -97 
L 728 3556 
Q 606 3838 556 3900 
Q 478 3997 364 4051 
Q 250 4106 56 4122 
L 56 4238 
L 1788 4238 
L 1788 4122 
Q 1494 4094 1406 4022 
Q 1319 3950 1319 3838 
Q 1319 3681 1463 3350 
L 2541 866 
L 3541 3319 
Q 3688 3681 3688 3822 
Q 3688 3913 3597 3995 
Q 3506 4078 3291 4113 
Q 3275 4116 3238 4122 
L 3238 4238 
L 4544 4238 
z
" transform="scale(0.015625)"/>
      </defs>
      <use xlink:href="#TimesNewRomanPSMT-45"/>
      <use xlink:href="#TimesNewRomanPSMT-56" x="61.083984"/>
      <use xlink:href="#TimesNewRomanPSMT-20" x="131.550781"/>
      <use xlink:href="#TimesNewRomanPSMT-34" x="156.550781"/>
      <use xlink:href="#TimesNewRomanPSMT-30" x="206.550781"/>
      <use xlink:href="#TimesNewRomanPSMT-25" x="256.550781"/>
     </g>
    </g>
    <g id="patch_30">
     <path d="M 136.186984 178.5615 
L 156.186984 178.5615 
L 156.186984 171.5615 
L 136.186984 171.5615 
z
" style="fill: #ffc40a; opacity: 0.5; stroke-dasharray: 3.7,1.6; stroke-dashoffset: 0; stroke: #808080; stroke-linejoin: miter"/>
    </g>
    <g id="text_25">
     <!-- EV 100% -->
     <g transform="translate(164.186984 178.5615) scale(0.1 -0.1)">
      <use xlink:href="#TimesNewRomanPSMT-45"/>
      <use xlink:href="#TimesNewRomanPSMT-56" x="61.083984"/>
      <use xlink:href="#TimesNewRomanPSMT-20" x="131.550781"/>
      <use xlink:href="#TimesNewRomanPSMT-31" x="156.550781"/>
      <use xlink:href="#TimesNewRomanPSMT-30" x="206.550781"/>
      <use xlink:href="#TimesNewRomanPSMT-30" x="256.550781"/>
      <use xlink:href="#TimesNewRomanPSMT-25" x="306.550781"/>
     </g>
    </g>
    <g id="patch_31">
     <path d="M 136.186984 192.700562 
L 156.186984 192.700562 
L 156.186984 185.700562 
L 136.186984 185.700562 
z
" style="fill: #ff3e00; opacity: 0.5; stroke-dasharray: 3.7,1.6; stroke-dashoffset: 0; stroke: #808080; stroke-linejoin: miter"/>
    </g>
    <g id="text_26">
     <!-- PV 5kWp 40% -->
     <g transform="translate(164.186984 192.700562) scale(0.1 -0.1)">
      <defs>
       <path id="TimesNewRomanPSMT-35" d="M 2778 4238 
L 2534 3706 
L 1259 3706 
L 981 3138 
Q 1809 3016 2294 2522 
Q 2709 2097 2709 1522 
Q 2709 1188 2573 903 
Q 2438 619 2231 419 
Q 2025 219 1772 97 
Q 1413 -75 1034 -75 
Q 653 -75 479 54 
Q 306 184 306 341 
Q 306 428 378 495 
Q 450 563 559 563 
Q 641 563 702 538 
Q 763 513 909 409 
Q 1144 247 1384 247 
Q 1750 247 2026 523 
Q 2303 800 2303 1197 
Q 2303 1581 2056 1914 
Q 1809 2247 1375 2428 
Q 1034 2569 447 2591 
L 1259 4238 
L 2778 4238 
z
" transform="scale(0.015625)"/>
      </defs>
      <use xlink:href="#TimesNewRomanPSMT-50"/>
      <use xlink:href="#TimesNewRomanPSMT-56" x="55.615234"/>
      <use xlink:href="#TimesNewRomanPSMT-20" x="126.082031"/>
      <use xlink:href="#TimesNewRomanPSMT-35" x="151.082031"/>
      <use xlink:href="#TimesNewRomanPSMT-6b" x="201.082031"/>
      <use xlink:href="#TimesNewRomanPSMT-57" x="251.082031"/>
      <use xlink:href="#TimesNewRomanPSMT-70" x="345.466797"/>
      <use xlink:href="#TimesNewRomanPSMT-20" x="395.466797"/>
      <use xlink:href="#TimesNewRomanPSMT-34" x="420.466797"/>
      <use xlink:href="#TimesNewRomanPSMT-30" x="470.466797"/>
      <use xlink:href="#TimesNewRomanPSMT-25" x="520.466797"/>
     </g>
    </g>
    <g id="patch_32">
     <path d="M 136.186984 206.839625 
L 156.186984 206.839625 
L 156.186984 199.839625 
L 136.186984 199.839625 
z
" style="fill: #ff008e; opacity: 0.5; stroke-dasharray: 3.7,1.6; stroke-dashoffset: 0; stroke: #808080; stroke-linejoin: miter"/>
    </g>
    <g id="text_27">
     <!-- BT 2.4kWh -->
     <g transform="translate(164.186984 206.839625) scale(0.1 -0.1)">
      <defs>
       <path id="TimesNewRomanPSMT-42" d="M 2956 2163 
Q 3397 2069 3616 1863 
Q 3919 1575 3919 1159 
Q 3919 844 3719 555 
Q 3519 266 3170 133 
Q 2822 0 2106 0 
L 106 0 
L 106 116 
L 266 116 
Q 531 116 647 284 
Q 719 394 719 750 
L 719 3488 
Q 719 3881 628 3984 
Q 506 4122 266 4122 
L 106 4122 
L 106 4238 
L 1938 4238 
Q 2450 4238 2759 4163 
Q 3228 4050 3475 3764 
Q 3722 3478 3722 3106 
Q 3722 2788 3528 2536 
Q 3334 2284 2956 2163 
z
M 1319 2331 
Q 1434 2309 1582 2298 
Q 1731 2288 1909 2288 
Q 2366 2288 2595 2386 
Q 2825 2484 2947 2687 
Q 3069 2891 3069 3131 
Q 3069 3503 2766 3765 
Q 2463 4028 1881 4028 
Q 1569 4028 1319 3959 
L 1319 2331 
z
M 1319 306 
Q 1681 222 2034 222 
Q 2600 222 2897 476 
Q 3194 731 3194 1106 
Q 3194 1353 3059 1581 
Q 2925 1809 2622 1940 
Q 2319 2072 1872 2072 
Q 1678 2072 1540 2065 
Q 1403 2059 1319 2044 
L 1319 306 
z
" transform="scale(0.015625)"/>
       <path id="TimesNewRomanPSMT-2e" d="M 800 606 
Q 947 606 1047 504 
Q 1147 403 1147 259 
Q 1147 116 1045 14 
Q 944 -88 800 -88 
Q 656 -88 554 14 
Q 453 116 453 259 
Q 453 406 554 506 
Q 656 606 800 606 
z
" transform="scale(0.015625)"/>
      </defs>
      <use xlink:href="#TimesNewRomanPSMT-42"/>
      <use xlink:href="#TimesNewRomanPSMT-54" x="66.699219"/>
      <use xlink:href="#TimesNewRomanPSMT-20" x="126.033203"/>
      <use xlink:href="#TimesNewRomanPSMT-32" x="151.033203"/>
      <use xlink:href="#TimesNewRomanPSMT-2e" x="201.033203"/>
      <use xlink:href="#TimesNewRomanPSMT-34" x="226.033203"/>
      <use xlink:href="#TimesNewRomanPSMT-6b" x="276.033203"/>
      <use xlink:href="#TimesNewRomanPSMT-57" x="326.033203"/>
      <use xlink:href="#TimesNewRomanPSMT-68" x="420.417969"/>
     </g>
    </g>
    <g id="patch_33">
     <path d="M 136.186984 220.978687 
L 156.186984 220.978687 
L 156.186984 213.978687 
L 136.186984 213.978687 
z
" style="fill: #9f33fe; opacity: 0.5; stroke-dasharray: 3.7,1.6; stroke-dashoffset: 0; stroke: #808080; stroke-linejoin: miter"/>
    </g>
    <g id="text_28">
     <!-- Pathway WDSH w Eff -->
     <g transform="translate(164.186984 220.978687) scale(0.1 -0.1)">
      <defs>
       <path id="TimesNewRomanPSMT-79" d="M 38 2863 
L 1372 2863 
L 1372 2747 
L 1306 2747 
Q 1166 2747 1095 2686 
Q 1025 2625 1025 2534 
Q 1025 2413 1128 2197 
L 1825 753 
L 2466 2334 
Q 2519 2463 2519 2588 
Q 2519 2644 2497 2672 
Q 2472 2706 2419 2726 
Q 2366 2747 2231 2747 
L 2231 2863 
L 3163 2863 
L 3163 2747 
Q 3047 2734 2984 2696 
Q 2922 2659 2847 2556 
Q 2819 2513 2741 2316 
L 1575 -541 
Q 1406 -956 1132 -1168 
Q 859 -1381 606 -1381 
Q 422 -1381 303 -1275 
Q 184 -1169 184 -1031 
Q 184 -900 270 -820 
Q 356 -741 506 -741 
Q 609 -741 788 -809 
Q 913 -856 944 -856 
Q 1038 -856 1148 -759 
Q 1259 -663 1372 -384 
L 1575 113 
L 547 2272 
Q 500 2369 397 2513 
Q 319 2622 269 2659 
Q 197 2709 38 2747 
L 38 2863 
z
" transform="scale(0.015625)"/>
      </defs>
      <use xlink:href="#TimesNewRomanPSMT-50"/>
      <use xlink:href="#TimesNewRomanPSMT-61" x="55.615234"/>
      <use xlink:href="#TimesNewRomanPSMT-74" x="100"/>
      <use xlink:href="#TimesNewRomanPSMT-68" x="127.783203"/>
      <use xlink:href="#TimesNewRomanPSMT-77" x="177.783203"/>
      <use xlink:href="#TimesNewRomanPSMT-61" x="250"/>
      <use xlink:href="#TimesNewRomanPSMT-79" x="294.384766"/>
      <use xlink:href="#TimesNewRomanPSMT-20" x="344.384766"/>
      <use xlink:href="#TimesNewRomanPSMT-57" x="367.634766"/>
      <use xlink:href="#TimesNewRomanPSMT-44" x="462.019531"/>
      <use xlink:href="#TimesNewRomanPSMT-53" x="534.236328"/>
      <use xlink:href="#TimesNewRomanPSMT-48" x="589.851562"/>
      <use xlink:href="#TimesNewRomanPSMT-20" x="662.068359"/>
      <use xlink:href="#TimesNewRomanPSMT-77" x="687.068359"/>
      <use xlink:href="#TimesNewRomanPSMT-20" x="759.285156"/>
      <use xlink:href="#TimesNewRomanPSMT-45" x="784.285156"/>
      <use xlink:href="#TimesNewRomanPSMT-66" x="845.369141"/>
      <use xlink:href="#TimesNewRomanPSMT-66" x="876.919922"/>
     </g>
    </g>
    <g id="patch_34">
     <path d="M 136.186984 235.1365 
L 156.186984 235.1365 
L 156.186984 228.1365 
L 136.186984 228.1365 
z
" style="fill: #f0a0f2; opacity: 0.5; stroke-dasharray: 3.7,1.6; stroke-dashoffset: 0; stroke: #808080; stroke-linejoin: miter"/>
    </g>
    <g id="text_29">
     <!-- Pathway Full Ele -->
     <g transform="translate(164.186984 235.1365) scale(0.1 -0.1)">
      <defs>
       <path id="TimesNewRomanPSMT-46" d="M 1309 4006 
L 1309 2341 
L 2081 2341 
Q 2347 2341 2470 2458 
Q 2594 2575 2634 2922 
L 2750 2922 
L 2750 1488 
L 2634 1488 
Q 2631 1734 2570 1850 
Q 2509 1966 2401 2023 
Q 2294 2081 2081 2081 
L 1309 2081 
L 1309 750 
Q 1309 428 1350 325 
Q 1381 247 1481 191 
Q 1619 116 1769 116 
L 1922 116 
L 1922 0 
L 103 0 
L 103 116 
L 253 116 
Q 516 116 634 269 
Q 709 369 709 750 
L 709 3488 
Q 709 3809 669 3913 
Q 638 3991 541 4047 
Q 406 4122 253 4122 
L 103 4122 
L 103 4238 
L 3256 4238 
L 3297 3306 
L 3188 3306 
Q 3106 3603 2998 3742 
Q 2891 3881 2733 3943 
Q 2575 4006 2244 4006 
L 1309 4006 
z
" transform="scale(0.015625)"/>
      </defs>
      <use xlink:href="#TimesNewRomanPSMT-50"/>
      <use xlink:href="#TimesNewRomanPSMT-61" x="55.615234"/>
      <use xlink:href="#TimesNewRomanPSMT-74" x="100"/>
      <use xlink:href="#TimesNewRomanPSMT-68" x="127.783203"/>
      <use xlink:href="#TimesNewRomanPSMT-77" x="177.783203"/>
      <use xlink:href="#TimesNewRomanPSMT-61" x="250"/>
      <use xlink:href="#TimesNewRomanPSMT-79" x="294.384766"/>
      <use xlink:href="#TimesNewRomanPSMT-20" x="344.384766"/>
      <use xlink:href="#TimesNewRomanPSMT-46" x="369.384766"/>
      <use xlink:href="#TimesNewRomanPSMT-75" x="425"/>
      <use xlink:href="#TimesNewRomanPSMT-6c" x="475"/>
      <use xlink:href="#TimesNewRomanPSMT-6c" x="502.783203"/>
      <use xlink:href="#TimesNewRomanPSMT-20" x="530.566406"/>
      <use xlink:href="#TimesNewRomanPSMT-45" x="555.566406"/>
      <use xlink:href="#TimesNewRomanPSMT-6c" x="616.650391"/>
      <use xlink:href="#TimesNewRomanPSMT-65" x="644.433594"/>
     </g>
    </g>
    <g id="patch_35">
     <path d="M 136.186984 249.294312 
L 156.186984 249.294312 
L 156.186984 242.294312 
L 136.186984 242.294312 
z
" style="fill: #fef8fe; opacity: 0.5; stroke-dasharray: 3.7,1.6; stroke-dashoffset: 0; stroke: #808080; stroke-linejoin: miter"/>
    </g>
    <g id="text_30">
     <!-- Pathway Full Ele w DER -->
     <g transform="translate(164.186984 249.294312) scale(0.1 -0.1)">
      <defs>
       <path id="TimesNewRomanPSMT-52" d="M 4325 0 
L 3194 0 
L 1759 1981 
Q 1600 1975 1500 1975 
Q 1459 1975 1412 1976 
Q 1366 1978 1316 1981 
L 1316 750 
Q 1316 350 1403 253 
Q 1522 116 1759 116 
L 1925 116 
L 1925 0 
L 109 0 
L 109 116 
L 269 116 
Q 538 116 653 291 
Q 719 388 719 750 
L 719 3488 
Q 719 3888 631 3984 
Q 509 4122 269 4122 
L 109 4122 
L 109 4238 
L 1653 4238 
Q 2328 4238 2648 4139 
Q 2969 4041 3192 3777 
Q 3416 3513 3416 3147 
Q 3416 2756 3161 2468 
Q 2906 2181 2372 2063 
L 3247 847 
Q 3547 428 3762 290 
Q 3978 153 4325 116 
L 4325 0 
z
M 1316 2178 
Q 1375 2178 1419 2176 
Q 1463 2175 1491 2175 
Q 2097 2175 2405 2437 
Q 2713 2700 2713 3106 
Q 2713 3503 2464 3751 
Q 2216 4000 1806 4000 
Q 1625 4000 1316 3941 
L 1316 2178 
z
" transform="scale(0.015625)"/>
      </defs>
      <use xlink:href="#TimesNewRomanPSMT-50"/>
      <use xlink:href="#TimesNewRomanPSMT-61" x="55.615234"/>
      <use xlink:href="#TimesNewRomanPSMT-74" x="100"/>
      <use xlink:href="#TimesNewRomanPSMT-68" x="127.783203"/>
      <use xlink:href="#TimesNewRomanPSMT-77" x="177.783203"/>
      <use xlink:href="#TimesNewRomanPSMT-61" x="250"/>
      <use xlink:href="#TimesNewRomanPSMT-79" x="294.384766"/>
      <use xlink:href="#TimesNewRomanPSMT-20" x="344.384766"/>
      <use xlink:href="#TimesNewRomanPSMT-46" x="369.384766"/>
      <use xlink:href="#TimesNewRomanPSMT-75" x="425"/>
      <use xlink:href="#TimesNewRomanPSMT-6c" x="475"/>
      <use xlink:href="#TimesNewRomanPSMT-6c" x="502.783203"/>
      <use xlink:href="#TimesNewRomanPSMT-20" x="530.566406"/>
      <use xlink:href="#TimesNewRomanPSMT-45" x="555.566406"/>
      <use xlink:href="#TimesNewRomanPSMT-6c" x="616.650391"/>
      <use xlink:href="#TimesNewRomanPSMT-65" x="644.433594"/>
      <use xlink:href="#TimesNewRomanPSMT-20" x="688.818359"/>
      <use xlink:href="#TimesNewRomanPSMT-77" x="713.818359"/>
      <use xlink:href="#TimesNewRomanPSMT-20" x="786.035156"/>
      <use xlink:href="#TimesNewRomanPSMT-44" x="811.035156"/>
      <use xlink:href="#TimesNewRomanPSMT-45" x="883.251953"/>
      <use xlink:href="#TimesNewRomanPSMT-52" x="944.335938"/>
     </g>
    </g>
   </g>
  </g>
 </g>
 <defs>
  <clipPath id="p1ca1e7a7df">
   <rect x="127.186984" y="49.449" width="1074.453641" height="540.75125"/>
  </clipPath>
 </defs>
</svg>
